<svg width="33" height="44" viewBox="0 0 33 44" fill="none" xmlns="http://www.w3.org/2000/svg">
<g clip-path="url(#clip0_11_851)">
<path d="M24.75 30.7914C25.9514 30.0963 26.2565 28.2098 27.2319 27.2345C28.2073 26.2591 30.0936 25.9557 30.7888 24.7534C31.4746 23.5684 30.8031 21.7852 31.1646 20.4316C31.5133 19.1211 32.9226 17.918 32.9226 16.5C32.9226 15.082 31.4385 13.8772 31.0887 12.5701C30.7272 11.2166 31.3991 9.43336 30.7136 8.24828C30.0187 7.04688 28.1329 6.74266 27.1575 5.76727C26.1821 4.79187 25.8779 2.90555 24.6765 2.21031C23.4914 1.52462 21.7082 2.19624 20.3547 1.83434C19.1211 1.48414 17.918 0 16.5 0C15.082 0 13.8789 1.48414 12.5726 1.83391C11.2148 2.19484 9.43593 1.52367 8.24827 2.20859C7.04687 2.90383 6.74265 4.79016 5.76726 5.76469C4.79273 6.74008 2.90554 7.0443 2.2103 8.2457C1.52452 9.42734 2.19655 11.2148 1.83476 12.5641C1.48413 13.8789 6.10352e-05 15.082 6.10352e-05 16.5C6.10352e-05 17.918 1.4842 19.1228 1.83397 20.4299C2.19551 21.7834 1.5233 23.5666 2.20874 24.7517C2.90468 25.9531 4.79015 26.2539 5.76468 27.2336C6.74007 28.209 7.04429 30.0953 8.24655 30.7914C9.43163 31.4771 11.214 30.805 12.5675 31.1669C13.8789 31.5133 15.082 33 16.5 33C17.918 33 19.1228 31.5159 20.4308 31.1661C21.7852 30.8086 23.5641 31.4789 24.75 30.7914ZM9.62499 16.5C9.62499 12.6955 12.7024 9.625 16.5 9.625C20.2976 9.625 23.375 12.6955 23.375 16.5C23.375 20.2959 20.2976 23.375 16.5 23.375C12.7024 23.375 9.62499 20.2984 9.62499 16.5ZM0.147719 37.2281C-0.131578 37.9318 -0.00533587 38.7303 0.480727 39.3121C0.966789 39.8922 1.7294 40.1627 2.4676 40.0123L6.35112 39.2359L8.19276 42.8685C8.54734 43.5703 9.24687 44 10.0289 44C10.0584 44 10.086 43.999 10.1155 43.9977C10.9319 43.9654 11.6323 43.475 11.9408 42.7189L14.8266 35.6652C10.2109 35.2665 6.06099 33.2486 2.95005 30.1695L0.147719 37.2281ZM30.0437 30.1727C26.9371 33.2518 22.7863 35.2696 18.1672 35.6684L21.053 42.7221C21.3618 43.4781 22.0619 43.9682 22.8783 44.0009C22.9109 43.9227 22.868 44 22.9711 44C23.7526 44 24.4518 43.5726 24.8059 42.8708L26.6475 39.2373L30.531 40.0138C31.2696 40.1642 32.0323 39.8937 32.5179 39.3136C33.0039 38.7321 33.1302 37.9334 32.8509 37.2296L30.0437 30.1727Z" fill="white"/>
</g>
<defs>
<clipPath id="clip0_11_851">
<rect width="33" height="44" fill="white"/>
</clipPath>
</defs>
</svg>
