<svg xmlns="http://www.w3.org/2000/svg" width="158" height="63" viewBox="0 0 158 63" fill="none">
  <path d="M119.811 22.5693L119.81 22.5679L119.809 22.5664L119.809 22.5657C119.81 22.5669 119.811 22.5681 119.811 22.5693ZM119.811 22.5693L119.812 22.5708L119.813 22.5716C119.812 22.5708 119.812 22.57 119.811 22.5693ZM6.10837 3.85383L6.10932 3.8549L6.10837 3.85383ZM6.10837 3.85383C6.10901 3.85455 6.10965 3.85526 6.11029 3.85598M6.10837 3.85383L6.11163 3.85748M6.11029 3.85598C6.11074 3.85648 6.11118 3.85698 6.11163 3.85748M6.11029 3.85598L6.11121 3.85701L6.11163 3.85748M6.11029 3.85598L6.11163 3.85748M126.817 33.6169C122.619 31.781 118.802 28.6263 116.436 24.7151C116.431 24.7073 116.426 24.6989 116.42 24.6899C116.412 24.6761 116.403 24.6606 116.393 24.6436C116.38 24.6221 116.366 24.598 116.352 24.5718C116.303 24.4836 116.231 24.3449 116.166 24.1746C116.107 24.0219 116.012 23.7389 115.994 23.3861C115.976 23.0321 116.03 22.3815 116.539 21.8072C117.025 21.2589 117.629 21.1209 117.935 21.0826C118.257 21.0422 118.532 21.0748 118.689 21.1C118.861 21.1278 119.006 21.1664 119.101 21.1945C119.151 21.2093 119.194 21.2233 119.227 21.2347C119.236 21.2377 119.244 21.2405 119.252 21.2431C119.259 21.2457 119.266 21.2481 119.272 21.2504L119.29 21.2568L119.295 21.2588C124.874 23.3251 130.843 23.5173 137.117 23.626C137.153 23.6266 137.188 23.6282 137.224 23.6307C141.962 23.9668 146.722 23.7817 151.42 23.0789L151.444 23.0755C152.106 22.9846 152.779 23.0944 153.377 23.3899C153.975 23.6854 154.469 24.1524 154.799 24.7294C155.129 25.3064 155.281 25.9679 155.235 26.63C155.189 27.2921 154.948 27.9268 154.542 28.4531L154.537 28.4586L152.68 30.8438C147.398 38.3576 146.087 48.2962 144.925 57.9739C144.924 57.9836 144.923 57.994 144.922 58.005C144.917 58.0498 144.91 58.1068 144.899 58.1725C144.879 58.2955 144.841 58.4881 144.766 58.7045C144.698 58.9001 144.553 59.2517 144.253 59.5844C143.912 59.9609 143.342 60.3322 142.58 60.3322C141.806 60.3322 141.219 59.949 140.868 59.5336C140.566 59.1754 140.436 58.8012 140.378 58.6014C140.314 58.3778 140.287 58.1804 140.274 58.0565C140.268 57.9951 140.264 57.9413 140.262 57.8979C139.701 51.8575 139.605 45.6823 140.474 39.5476C119.46 53.6121 93.2222 55.5575 68.6419 49.4002C42.4652 42.843 17.8866 27.0381 3.03316 6.40909C2.99782 6.36481 2.95538 6.30909 2.90958 6.24332C2.81632 6.10941 2.68005 5.89265 2.57018 5.61385C2.46394 5.34429 2.33757 4.90378 2.39781 4.37097C2.46463 3.78003 2.74615 3.22527 3.22071 2.80896C4.39248 1.78099 5.7182 2.32486 6.07783 2.50211C6.32961 2.62621 6.52936 2.76519 6.65657 2.86158C6.72362 2.9124 6.77947 2.95823 6.82212 2.99462C6.84361 3.01297 6.86223 3.02932 6.87773 3.04319L6.89877 3.06222L6.90759 3.07032L6.91157 3.07401L6.91345 3.07576L6.91437 3.07661C6.91474 3.07695 6.91511 3.0773 6.1482 3.89968C6.14822 3.89969 6.14823 3.8997 6.14824 3.89972L6.91526 3.07744C6.95333 3.11296 6.99 3.14994 7.02518 3.18831C15.4309 12.356 27.0553 20.5412 38.9811 26.7876C50.9148 33.0381 62.9955 37.2666 72.2487 38.6293C94.9121 41.9601 110.555 39.8253 128.407 34.2423C127.869 34.054 127.338 33.8449 126.817 33.6169ZM119.816 22.5758C119.816 22.576 119.816 22.5763 119.816 22.5766L119.816 22.5764L119.816 22.5758ZM5.61276 4.47377L6.14811 3.89986C6.14809 3.89984 6.14808 3.89983 6.14807 3.89982C6.00005 4.05854 5.82345 4.24789 5.61276 4.47377Z" fill="#07A5C3" stroke="white" stroke-width="4" stroke-linejoin="round"/>
</svg>