<svg width="50" height="50" viewBox="0 0 50 50" fill="none" xmlns="http://www.w3.org/2000/svg">
<path d="M17.2394 32.2565C16.2558 31.5921 15.5749 30.6217 15.2031 29.3388L17.486 28.398C17.6933 29.1874 18.0551 29.7992 18.5716 30.2335C19.0848 30.6677 19.7098 30.8815 20.44 30.8815C21.1867 30.8815 21.8282 30.6546 22.3644 30.2006C22.9006 29.7467 23.1703 29.1677 23.1703 28.467C23.1703 27.7499 22.8874 27.1644 22.3216 26.7105C21.7558 26.2565 21.0453 26.0295 20.1966 26.0295H18.8775V23.7696H20.0617C20.792 23.7696 21.4071 23.5723 21.9071 23.1775C22.4071 22.7828 22.6571 22.2434 22.6571 21.5559C22.6571 20.944 22.4334 20.4571 21.986 20.0921C21.5387 19.727 20.9729 19.5428 20.2854 19.5428C19.6143 19.5428 19.0814 19.7204 18.6866 20.079C18.2919 20.4376 18.0057 20.8783 17.8248 21.398L15.5649 20.4572C15.8643 19.6085 16.4137 18.8585 17.2195 18.2105C18.0255 17.5625 19.0551 17.2368 20.3051 17.2368C21.2294 17.2368 22.0616 17.4145 22.7985 17.773C23.5354 18.1316 24.1144 18.6283 24.5321 19.2599C24.9499 19.8947 25.1571 20.6053 25.1571 21.3947C25.1571 22.2007 24.9631 22.8815 24.5749 23.4408C24.1867 24 23.7098 24.4276 23.1439 24.7271V24.8619C23.8906 25.1744 24.4992 25.6514 24.9795 26.2929C25.4564 26.9343 25.6966 27.7008 25.6966 28.5955C25.6966 29.4902 25.4696 30.2895 25.0156 30.9902C24.5617 31.6909 23.9334 32.2436 23.1373 32.6448C22.338 33.0461 21.4399 33.2501 20.4433 33.2501C19.2887 33.2533 18.2229 32.9211 17.2394 32.2565Z" fill="#0085F7"/>
<path d="M31.2638 20.9276L28.7571 22.7401L27.5039 20.8388L32.0006 17.5954H33.7243V32.8947H31.2638V20.9276Z" fill="#0085F7"/>
<path d="M38.157 38.1579H11.8412L8.07422 43.7084L11.8412 50H38.157L41.2691 43.306L38.157 38.1579Z" fill="#00A94B"/>
<path d="M38.1579 0H3.94736C1.76641 0 0 1.76641 0 3.94736V38.1579L5.92109 42.3672L11.8422 38.1579V11.8421H38.158L42.209 5.921L38.1579 0Z" fill="#0085F7"/>
<path d="M0 38.1579V46.0526C0 48.2336 1.76641 50 3.94736 50H11.8421V38.1579H0Z" fill="#00802E"/>
<path d="M50.0003 11.8421L44.0792 8.0321L38.1582 11.8421V38.1579L43.4833 40.9375L50.0003 38.1579V11.8421Z" fill="#FFBC00"/>
<path d="M50.0003 11.8421V3.94736C50.0003 1.76641 48.2339 0 46.0529 0H38.1582V11.8421H50.0003Z" fill="#0067D5"/>
<path d="M38.1582 50L50.0003 38.1579H38.1582V50Z" fill="#FF4131"/>
</svg>
