<svg width="44" height="44" viewBox="0 0 44 44" fill="none" xmlns="http://www.w3.org/2000/svg">
<g clip-path="url(#clip0_12_275)">
<path d="M31.9684 19.2493C27.7989 19.2493 24.4062 22.642 24.4062 26.8115C24.4062 30.981 27.7989 34.3737 31.9684 34.3737C36.1379 34.3737 39.5306 30.981 39.5306 26.8115C39.5306 22.642 36.1379 19.2493 31.9684 19.2493ZM35.1746 25.5981C32.9763 28.896 33.5997 27.961 32.4247 29.723C32.0027 30.356 31.1482 30.5239 30.5178 30.1036L28.4554 28.7287C27.8238 28.3076 27.6536 27.4543 28.0747 26.8218C28.4958 26.1902 29.3491 26.0201 29.9816 26.4411L30.8994 27.053C33.0922 23.7642 32.9743 23.8552 33.3433 23.6448C34.5957 22.9204 35.9794 24.3894 35.1746 25.5981ZM25.7811 35.056V42.6234C25.7811 43.6769 26.9222 44.3408 27.8384 43.817L31.9684 41.4573L36.0984 43.817C37.0109 44.34 38.1557 43.6798 38.1557 42.6234V35.056C34.4925 37.8121 29.4496 37.8161 25.7811 35.056ZM34.7183 16.8723V2.98622C34.7183 1.33972 33.3786 0 31.7321 0H7.45564C5.80914 0 4.46942 1.33972 4.46942 2.98622V34.8249C4.46942 36.4714 5.80914 37.8111 7.45564 37.8111H23.0312C23.0312 31.8943 23.022 32.2605 23.0527 31.9882C18.4499 24.0971 25.7792 14.3899 34.7183 16.8723ZM12.7191 6.87474H24.4062C25.1658 6.87474 25.7811 7.49003 25.7811 8.24969C25.7811 9.00935 25.1658 9.62464 24.4062 9.62464H12.7191C11.9595 9.62464 11.3442 9.00935 11.3442 8.24969C11.3442 7.49003 11.9595 6.87474 12.7191 6.87474ZM19.5939 20.6242H12.7191C11.9595 20.6242 11.3442 20.0089 11.3442 19.2493C11.3442 18.4896 11.9595 17.8743 12.7191 17.8743H19.5939C20.3535 17.8743 20.9688 18.4896 20.9688 19.2493C20.9688 20.0089 20.3535 20.6242 19.5939 20.6242ZM12.7191 15.1244C11.9595 15.1244 11.3442 14.5091 11.3442 13.7495C11.3442 12.9898 11.9595 12.3745 12.7191 12.3745H24.4062C25.1658 12.3745 25.7811 12.9898 25.7811 13.7495C25.7811 14.5091 25.1658 15.1244 24.4062 15.1244H12.7191Z" fill="white"/>
</g>
<defs>
<clipPath id="clip0_12_275">
<rect width="44" height="44" fill="white"/>
</clipPath>
</defs>
</svg>
