<svg width="44" height="44" viewBox="0 0 44 44" fill="none" xmlns="http://www.w3.org/2000/svg">
<path d="M38.4446 10.842C38.3803 10.142 37.9223 9.53887 37.2643 9.29192L22.8387 3.87863C22.6743 3.79632 22.4988 3.74095 22.3164 3.71052C21.9193 3.63003 21.5028 3.69805 21.1378 3.88762L6.73566 9.29192C6.07749 9.53887 5.61952 10.142 5.55536 10.842C5.53574 11.055 3.83129 32.1404 20.9682 40.0327C20.9862 40.0452 21.0058 40.0578 21.0254 40.0685C21.3151 40.2457 21.644 40.3336 21.9732 40.3336C22.0233 40.3336 22.0733 40.3317 22.1236 40.3282C22.4204 40.3086 22.7155 40.2173 22.9784 40.0578C40.1724 32.1851 38.4644 11.0569 38.4446 10.842ZM30.6583 17.7678L22.8129 25.9712C22.4719 26.3274 22.0018 26.5317 21.5087 26.537C21.5015 26.537 21.4953 26.537 21.4881 26.537C21.0021 26.537 20.5357 26.3436 20.192 25.9998L16.5253 22.3332C15.8092 21.6171 15.8092 20.4569 16.5253 19.7406C17.2414 19.0244 18.4015 19.0245 19.1178 19.7406L21.4588 22.0824L28.0089 15.2325C28.708 14.5002 29.8718 14.4751 30.6005 15.1753C31.3322 15.8754 31.3582 17.0356 30.6583 17.7678Z" fill="white"/>
</svg>
