<svg width="32" height="33" viewBox="0 0 32 33" fill="none" xmlns="http://www.w3.org/2000/svg">
<g clip-path="url(#clip0_62_653)">
<path d="M31.905 18.4169C31.8256 18.2581 31.6272 18.1788 31.4685 18.1391C30.5558 18.1391 22.6986 17.8216 22.6986 8.69459C22.6986 8.41681 22.4605 8.17871 22.1827 8.17871C21.9049 8.17871 21.6668 8.41681 21.6668 8.69459C21.6668 17.8216 13.8096 18.1391 12.9366 18.1391C12.8175 18.1391 12.6985 18.1788 12.6191 18.2581C12.5398 18.2978 12.5001 18.3772 12.4604 18.4169C12.381 18.5756 12.381 18.774 12.4604 18.9327C12.5398 19.0915 12.7382 19.2105 12.9366 19.2105C12.9366 19.2105 12.9366 19.2105 12.9763 19.2105C13.889 19.2105 21.7065 19.528 21.7065 28.655C21.7065 28.9328 21.9446 29.1709 22.2224 29.1709C22.5001 29.1709 22.7382 28.9328 22.7382 28.655C22.7382 19.5677 30.5558 19.2105 31.4685 19.2105C31.6669 19.2105 31.8256 19.0915 31.9447 18.9327C32.024 18.774 32.024 18.5756 31.905 18.4169ZM22.1827 24.7661C21.0319 20.9963 18.2144 19.3693 15.9922 18.655C18.2144 17.9407 21.0319 16.3137 22.1827 12.5438C23.3335 16.3137 26.151 17.9407 28.3732 18.655C26.151 19.3693 23.3335 20.9963 22.1827 24.7661Z" fill="#FBC324"/>
<path d="M15.635 8.09934C15.9128 8.09934 16.1508 7.86125 16.1508 7.54379C16.1508 7.26601 15.9128 7.02791 15.635 7.02791C15.1588 7.02791 10.873 6.86918 10.873 1.86915C10.873 1.59137 10.6349 1.35327 10.3572 1.35327C10.0794 1.35327 9.84129 1.59137 9.84129 1.86915C9.84129 6.86918 5.55555 7.02791 5.07935 7.02791C5.03967 7.02791 5.03967 7.02791 5.03967 7.02791C4.76189 7.06759 4.56348 7.26601 4.56348 7.54379C4.56348 7.82157 4.80157 8.05966 5.07935 8.05966C5.59523 8.05966 9.84129 8.21839 9.84129 13.2184C9.84129 13.4962 10.0794 13.7343 10.3572 13.7343C10.5953 13.774 10.8334 13.5359 10.8334 13.2581C10.8334 8.25808 15.1191 8.09934 15.5953 8.09934H15.635ZM10.3175 10.3613C9.68256 8.85332 8.53175 8.01998 7.46032 7.54379C8.61112 7.06759 9.68256 6.15489 10.3175 4.72631C10.9524 6.23425 12.1032 7.06759 13.1746 7.54379C12.0238 8.01998 10.9524 8.93268 10.3175 10.3613Z" fill="#FBC324"/>
<path d="M11.0715 24.9249C10.5953 24.9249 6.30956 24.7662 6.30956 19.7661C6.30956 19.4883 6.07147 19.2502 5.79369 19.2502C5.51591 19.2502 5.27781 19.4883 5.27781 19.7661C5.27781 24.7662 0.99207 24.9249 0.515876 24.9249C0.476193 24.9249 0.476193 24.9249 0.476193 24.9249C0.198414 24.9646 0 25.163 0 25.4408C0 25.7185 0.238097 25.9566 0.515876 25.9566C1.03175 25.9566 5.27781 26.1154 5.27781 31.1154C5.27781 31.3932 5.51591 31.6313 5.79369 31.6313C6.03178 31.7106 6.26988 31.4725 6.26988 31.1551C6.26988 26.155 10.5556 25.9963 11.0318 25.9963H11.0715C11.3493 25.9963 11.5874 25.7582 11.5874 25.4408C11.5874 25.163 11.3493 24.9249 11.0715 24.9249ZM5.754 28.2979C5.0794 26.79 3.96828 25.9566 2.89684 25.4804C4.04764 25.0042 5.11908 24.0915 5.754 22.663C6.38893 24.1709 7.53973 25.0042 8.61116 25.4804C7.46036 25.9566 6.38893 26.8693 5.754 28.2979Z" fill="#FBC324"/>
</g>
<defs>
<clipPath id="clip0_62_653">
<rect width="32" height="32" fill="white" transform="translate(0 0.5)"/>
</clipPath>
</defs>
</svg>
