<svg width="46" height="46" viewBox="0 0 46 46" fill="none" xmlns="http://www.w3.org/2000/svg">
<path fill-rule="evenodd" clip-rule="evenodd" d="M10.5091 9.10529C9.69903 9.10529 9.04224 9.76336 9.04224 10.5751V38.9767C9.04224 39.7885 9.69903 40.4465 10.5091 40.4465H35.4909C36.301 40.4465 36.9578 39.7885 36.9578 38.9767V10.5751C36.9578 9.76336 36.301 9.10529 35.4909 9.10529H33.1479C32.704 9.10529 32.1654 9.34828 31.4445 9.84132C31.1876 10.017 30.9395 10.201 30.6775 10.3951C30.5822 10.4657 30.4852 10.5377 30.3851 10.6111C30.0267 10.8743 29.6363 11.1516 29.2393 11.375C27.6503 12.2692 25.291 12.6499 23.0547 12.6446C20.8137 12.6393 18.4526 12.2457 16.8444 11.3822C16.4387 11.1645 16.0364 10.8902 15.6649 10.6281C15.5547 10.5503 15.4478 10.474 15.3429 10.3991C15.0775 10.2099 14.8245 10.0294 14.5624 9.85595C13.8091 9.3578 13.2424 9.10529 12.7833 9.10529H10.5091ZM7 10.5751C7 8.63322 8.5711 7.05908 10.5091 7.05908H12.7833C13.8977 7.05908 14.9092 7.63352 15.6875 8.14826C15.982 8.34306 16.2798 8.55556 16.5551 8.752C16.6538 8.82229 16.7495 8.89053 16.841 8.9552C17.2056 9.21251 17.5212 9.4242 17.809 9.57869C18.9977 10.2168 20.9765 10.5934 23.0595 10.5983C25.147 10.6033 27.0956 10.2345 28.2392 9.59086C28.5205 9.43259 28.826 9.21906 29.1781 8.96052C29.2613 8.89944 29.3479 8.83529 29.4369 8.76929C29.7075 8.56866 30.0014 8.35084 30.2932 8.15123C31.0483 7.63475 32.0357 7.05908 33.1479 7.05908H35.4909C37.4289 7.05908 39 8.63322 39 10.5751V38.9767C39 40.9186 37.4289 42.4928 35.4909 42.4928H10.5091C8.5711 42.4928 7 40.9186 7 38.9767V10.5751Z" fill="#FBC324"/>
<path fill-rule="evenodd" clip-rule="evenodd" d="M20.4926 17.9989C20.8913 18.3985 20.8913 19.0462 20.4926 19.4459L17.2421 22.7027C17.0506 22.8945 16.7908 23.0023 16.52 23.0023C16.2492 23.0023 15.9894 22.8945 15.798 22.7027L13.907 20.8079C13.5082 20.4082 13.5082 19.7605 13.907 19.3608C14.3057 18.9613 14.9523 18.9614 15.351 19.361L16.52 20.5323L19.0485 17.9989C19.4473 17.5993 20.0937 17.5993 20.4926 17.9989Z" fill="#FBC324"/>
<path fill-rule="evenodd" clip-rule="evenodd" d="M23.4463 20.3515C23.4463 19.7864 23.9035 19.3284 24.4674 19.3284H31.3539C31.9178 19.3284 32.375 19.7864 32.375 20.3515C32.375 20.9166 31.9178 21.3746 31.3539 21.3746H24.4674C23.9035 21.3746 23.4463 20.9166 23.4463 20.3515Z" fill="#FBC324"/>
<path fill-rule="evenodd" clip-rule="evenodd" d="M20.4926 26.8455C20.8913 27.2451 20.8913 27.8929 20.4926 28.2924L17.2421 31.5494C17.0506 31.7412 16.7908 31.849 16.52 31.849C16.2492 31.849 15.9894 31.7412 15.798 31.5494L13.907 29.6544C13.5082 29.2549 13.5082 28.6071 13.907 28.2075C14.3057 27.808 14.9523 27.808 15.351 28.2076L16.52 29.3789L19.0485 26.8455C19.4473 26.446 20.0937 26.446 20.4926 26.8455Z" fill="#FBC324"/>
<path fill-rule="evenodd" clip-rule="evenodd" d="M23.4463 29.1979C23.4463 28.6329 23.9035 28.1748 24.4674 28.1748H31.3539C31.9178 28.1748 32.375 28.6329 32.375 29.1979C32.375 29.763 31.9178 30.2211 31.3539 30.2211H24.4674C23.9035 30.2211 23.4463 29.763 23.4463 29.1979Z" fill="#FBC324"/>
<path fill-rule="evenodd" clip-rule="evenodd" d="M15.4028 8.0806C15.4028 10.3342 17.2262 12.1612 19.4755 12.1612H26.514C28.7632 12.1612 30.5865 10.3342 30.5865 8.0806C30.5865 5.82694 28.7632 4 26.514 4H19.4755C17.2262 4 15.4028 5.82694 15.4028 8.0806ZM19.4755 10.115C18.3541 10.115 17.4451 9.20409 17.4451 8.0806C17.4451 6.95705 18.3541 6.04625 19.4755 6.04625H26.514C27.6353 6.04625 28.5443 6.95705 28.5443 8.0806C28.5443 9.20409 27.6353 10.115 26.514 10.115H19.4755Z" fill="#FBC324"/>
</svg>
