<svg width="62" height="61" viewBox="0 0 62 61" fill="none" xmlns="http://www.w3.org/2000/svg">
<g clip-path="url(#clip0_18_2645)">
<path d="M60.4753 57.2933H56.795V38.0702C56.795 37.4123 56.2615 36.8788 55.6036 36.8788C54.9457 36.8788 54.4122 37.4123 54.4122 38.0702V57.2933H45.8569V47.387C45.8569 46.7291 45.3234 46.1955 44.6655 46.1955H36.8966C36.2387 46.1955 35.7052 46.7291 35.7052 47.387V57.2933H27.3503V26.8559V8.24878H54.4122V27.5509C54.4122 28.2088 54.9457 28.7423 55.6036 28.7423C56.2615 28.7423 56.795 28.2088 56.795 27.5509V7.05738C56.795 6.39948 56.2615 5.86597 55.6036 5.86597H52.6724V2.51526C52.6724 1.85736 52.1389 1.32385 51.481 1.32385H30.5822C29.9243 1.32385 29.3907 1.85736 29.3907 2.51526V5.86597H26.1591C25.5012 5.86597 24.9676 6.39948 24.9676 7.05738V25.6645H15.6283V21.9243C15.6283 21.2664 15.0948 20.7329 14.4369 20.7329H6.22719C5.56929 20.7329 5.03578 21.2664 5.03578 21.9243V26.8559V57.2933H1.85806C1.20017 57.2933 0.666656 57.8268 0.666656 58.4847C0.666656 59.1426 1.20017 59.6761 1.85806 59.6761H60.4753C61.1331 59.6761 61.6667 59.1426 61.6667 58.4847C61.6667 57.8268 61.1331 57.2933 60.4753 57.2933ZM31.7736 3.70667H50.2897V5.86597H31.7736V3.70667ZM7.41859 23.1157H13.2455V25.6645H7.41859V23.1157ZM17.5678 57.2928H14.6683V53.0386H17.5678V57.2928ZM24.9676 57.2933H19.9508V51.8472C19.9508 51.1893 19.4172 50.6558 18.7594 50.6558H13.477C12.8191 50.6558 12.2856 51.1893 12.2856 51.8472V57.2933H7.41859V28.0473H14.4369H24.9676V57.2933ZM43.4742 57.2928H38.0881V48.5782H43.4742V57.2928Z" fill="#FBC324"/>
<path d="M56.5936 32.2824C56.0025 31.3963 54.5847 31.7153 54.4258 32.7693C54.2638 33.8431 55.5764 34.5524 56.3886 33.8403C56.8353 33.4488 56.9172 32.7761 56.5936 32.2824Z" fill="#FBC324"/>
<path d="M38.8459 13.7083C38.8459 13.0504 38.3123 12.5168 37.6545 12.5168H32.6042C31.9463 12.5168 31.4128 13.0504 31.4128 13.7083V18.7585C31.4128 19.4164 31.9463 19.9499 32.6042 19.9499H37.6545C38.3123 19.9499 38.8459 19.4164 38.8459 18.7585V13.7083ZM36.463 17.567H33.7956V14.8995H36.463V17.567Z" fill="#FBC324"/>
<path d="M50.0114 13.7083C50.0114 13.0504 49.4779 12.5168 48.82 12.5168H43.7697C43.1118 12.5168 42.5783 13.0504 42.5783 13.7083V18.7585C42.5783 19.4164 43.1118 19.9499 43.7697 19.9499H48.82C49.4779 19.9499 50.0114 19.4164 50.0114 18.7585V13.7083ZM47.6286 17.567H44.9611V14.8995H47.6286V17.567Z" fill="#FBC324"/>
<path d="M38.8459 24.1259C38.8459 23.468 38.3123 22.9344 37.6545 22.9344H32.6042C31.9463 22.9344 31.4128 23.468 31.4128 24.1259V29.1761C31.4128 29.834 31.9463 30.3675 32.6042 30.3675H37.6545C38.3123 30.3675 38.8459 29.834 38.8459 29.1761V24.1259ZM36.463 27.9847H33.7956V25.3173H36.463V27.9847Z" fill="#FBC324"/>
<path d="M50.0114 24.1259C50.0114 23.468 49.4779 22.9344 48.82 22.9344H43.7697C43.1118 22.9344 42.5783 23.468 42.5783 24.1259V29.1761C42.5783 29.834 43.1118 30.3675 43.7697 30.3675H48.82C49.4779 30.3675 50.0114 29.834 50.0114 29.1761V24.1259ZM47.6286 27.9847H44.9611V25.3173H47.6286V27.9847Z" fill="#FBC324"/>
<path d="M37.6545 33.3519H32.6042C31.9463 33.3519 31.4128 33.8854 31.4128 34.5433V39.5936C31.4128 40.2515 31.9463 40.785 32.6042 40.785H37.6545C38.3123 40.785 38.8459 40.2515 38.8459 39.5936V34.5433C38.8459 33.8854 38.3125 33.3519 37.6545 33.3519ZM36.463 38.4022H33.7956V35.7347H36.463V38.4022Z" fill="#FBC324"/>
<path d="M48.82 33.3519H43.7697C43.1118 33.3519 42.5783 33.8854 42.5783 34.5433V39.5936C42.5783 40.2515 43.1118 40.785 43.7697 40.785H48.82C49.4779 40.785 50.0114 40.2515 50.0114 39.5936V34.5433C50.0114 33.8854 49.4779 33.3519 48.82 33.3519ZM47.6286 38.4022H44.9611V35.7347H47.6286V38.4022Z" fill="#FBC324"/>
<path d="M11.2269 30.7926C10.569 30.7926 10.0355 31.3261 10.0355 31.984V46.9103C10.0355 47.5682 10.569 48.1017 11.2269 48.1017C11.8848 48.1017 12.4183 47.5682 12.4183 46.9103V31.984C12.4183 31.3261 11.8848 30.7926 11.2269 30.7926Z" fill="#FBC324"/>
<path d="M16.1063 48.1017C16.7642 48.1017 17.2977 47.5682 17.2977 46.9103V31.984C17.2977 31.3261 16.7642 30.7926 16.1063 30.7926C15.4484 30.7926 14.9149 31.3261 14.9149 31.984V46.9103C14.9149 47.5683 15.4483 48.1017 16.1063 48.1017Z" fill="#FBC324"/>
<path d="M20.9859 48.1017C21.6437 48.1017 22.1773 47.5682 22.1773 46.9103V31.984C22.1773 31.3261 21.6437 30.7926 20.9859 30.7926C20.328 30.7926 19.7944 31.3261 19.7944 31.984V46.9103C19.7944 47.5683 20.3278 48.1017 20.9859 48.1017Z" fill="#FBC324"/>
</g>
<defs>
<clipPath id="clip0_18_2645">
<rect width="61" height="61" fill="white" transform="translate(0.666656)"/>
</clipPath>
</defs>
</svg>
