<svg width="44" height="44" viewBox="0 0 44 44" fill="none" xmlns="http://www.w3.org/2000/svg">
<g clip-path="url(#clip0_12_257)">
<path d="M23.1211 24.3534C24.2188 24.9876 25.4032 25.4247 26.6423 25.6547H28.385C28.7597 25.6547 29.0982 25.7128 29.4012 25.8161C33.1081 25.5676 36.418 23.5115 38.2743 20.2936C39.7568 17.7275 40.1507 14.7382 39.3835 11.8758C38.6164 9.01373 36.7807 6.62174 34.2144 5.14027C28.9183 2.08321 22.1207 3.90457 19.0611 9.20064C17.9287 11.1635 17.4317 13.3792 17.6127 15.6273C18.4784 16.1687 19.1987 16.9244 19.7076 17.8458C20.4268 19.148 20.6429 20.6315 20.333 22.0658C21.1316 22.9756 22.067 23.7455 23.1211 24.3534ZM24.8279 17.2906H26.0985V17.926C26.0985 18.7656 26.7817 19.4486 27.6212 19.4486H29.2081C30.3285 19.4486 31.2398 18.5371 31.2398 17.4168C31.2398 16.295 30.3284 15.3824 29.2081 15.3824C28.1247 15.3824 24.8279 15.3824 24.8279 12.0799C24.8279 10.2903 26.2567 8.82948 28.0326 8.7774V6.25685H29.3033V8.77491H29.7174C31.2575 8.77491 32.5105 10.0279 32.5105 11.568V12.2034H31.2398V11.568C31.2398 10.7285 30.5569 10.0455 29.7173 10.0455H28.1304C27.01 10.0455 26.0984 10.9581 26.0984 12.0798C26.0984 13.542 26.9703 14.1116 29.208 14.1116C31.029 14.1116 32.5104 15.5943 32.5104 17.4167C32.5104 19.2057 31.0802 20.6661 29.3031 20.7168V23.2397H28.0325V20.7192H27.621C26.0808 20.7192 24.8278 19.4661 24.8278 17.926V17.2906H24.8279ZM43.3745 14.747C43.3745 21.9987 38.2057 28.0433 31.1792 29.2395C31.2309 29.0115 31.258 28.7778 31.258 28.5444C31.258 27.9774 31.1034 27.408 30.801 26.9259C34.3911 26.2995 37.5281 24.1299 39.3748 20.929C41.0269 18.0691 41.4659 14.7373 40.6108 11.5469C39.7559 8.35716 37.7099 5.69112 34.8496 4.04001C28.9472 0.632672 21.3709 2.6626 17.9609 8.5653C16.8188 10.545 16.2563 12.755 16.3087 15.0137C16.2301 14.9876 16.1512 14.962 16.0711 14.9389L15.1143 14.6638C14.7771 14.5661 14.4254 14.7613 14.3283 15.0983L14.0302 16.1327C13.9871 15.673 13.9639 15.2107 13.9639 14.747C13.9638 6.6391 20.56 0.0429688 28.6679 0.0429688C36.7771 0.0429688 43.3745 6.6391 43.3745 14.747ZM24.4138 30.1634V31.434H28.3849C29.4918 31.434 29.9873 32.2472 29.9873 33.0531C29.9873 33.859 29.4918 34.6722 28.3849 34.6722H27.2738H24.4137V35.9428H27.2738C28.3807 35.9428 28.8761 36.756 28.8761 37.5619C28.8761 37.9913 28.7302 38.403 28.4757 38.6915C28.1891 39.0163 27.7848 39.181 27.2739 39.181H26.7852H24.4139V40.4516H26.7852C27.8921 40.4516 28.3876 41.2648 28.3876 42.0707C28.3876 42.8766 27.8921 43.6898 26.7852 43.6898H12.6858C11.6609 42.6326 10.3761 42.3155 9.24164 42.2179V30.0714C10.2792 29.8858 11.0639 29.4805 11.6273 28.8389C11.6891 28.7685 11.7346 28.6855 11.7605 28.5956L15.3733 16.0603L15.7195 16.1599C16.9507 16.5147 17.9721 17.3316 18.5954 18.4601C19.2187 19.5887 19.3665 20.8884 19.0116 22.1201L17.862 26.1144C17.8069 26.3062 17.8449 26.5128 17.965 26.6723C18.0849 26.8317 18.273 26.9255 18.4725 26.9255H28.385C29.4919 26.9255 29.9874 27.7386 29.9874 28.5446C29.9874 29.3505 29.4919 30.1636 28.385 30.1636H24.4138V30.1634ZM0.625542 28.4377H7.97105V43.957H0.625542V28.4377Z" fill="white"/>
</g>
<defs>
<clipPath id="clip0_12_257">
<rect width="44" height="44" fill="white"/>
</clipPath>
</defs>
</svg>
