<svg width="62" height="61" viewBox="0 0 62 61" fill="none" xmlns="http://www.w3.org/2000/svg">
<g clip-path="url(#clip0_138_492)">
<path d="M58.2831 40.6665H48.4335L56.9591 35.7436C57.6618 35.3415 58.1756 34.6764 58.3869 33.8946C58.5987 33.1127 58.4902 32.2792 58.0858 31.5779L50.9671 19.2514C50.5618 18.5506 49.894 18.0396 49.1116 17.8315C48.3293 17.6193 47.4944 17.731 46.7954 18.141L38.268 23.0653L43.1895 14.5421C43.5981 13.8413 43.7103 13.0063 43.5018 12.2222C43.2933 11.438 42.7804 10.7692 42.0777 10.3643L29.7531 3.24565C29.0518 2.84262 28.2192 2.73511 27.4387 2.9464C26.6583 3.15769 25.9937 3.67009 25.5911 4.37144L20.6668 12.9016V3.05019C20.6649 1.36639 19.3004 0.00186157 17.6166 0H3.3835C1.69971 0.00186157 0.335175 1.36639 0.333313 3.05019V57.9498C0.335175 59.6336 1.69971 60.9981 3.3835 61H58.2831C59.9669 60.9981 61.3315 59.6336 61.3333 57.9498V43.7167C61.3315 42.0329 59.9669 40.6684 58.2831 40.6665ZM3.3835 40.6665C3.03632 40.6702 2.69239 40.7335 2.36662 40.8541V30.5H10.5059L4.63634 40.6665H3.3835ZM44.3669 40.6665H30.4643L25.8066 32.6092L36.3706 26.5093L44.5 40.5902L44.3669 40.6665ZM34.7449 25.0996L22.7089 32.0502L14.6465 27.3949L20.7441 16.8337L34.8241 24.9628L34.7449 25.0996ZM18.6335 16.4228L12.3861 27.2441C12.3828 27.2492 12.3777 27.2516 12.3744 27.2571L12.3688 27.2734L11.6801 28.4667H2.36662V16.2669H18.6335V16.4228ZM13.6301 29.1559L20.6756 33.2244L7.78751 40.6665H6.98425L13.6301 29.1559ZM23.2041 34.1124L23.2172 34.1049L24.046 33.626L28.1159 40.6665H11.8541L23.2041 34.1124ZM18.6335 42.6998H30.8333V58.9667H18.6335V42.6998ZM32.8666 42.6998H45.0664V58.9667H32.8666V42.6998ZM47.816 19.8997C48.0477 19.7629 48.3256 19.7252 48.5857 19.795C48.8482 19.8658 49.0721 20.037 49.2089 20.2721L56.3234 32.5919C56.4588 32.826 56.4951 33.1043 56.4239 33.3654C56.3527 33.626 56.1805 33.848 55.945 33.9807L46.2606 39.5724L38.1316 25.4919L47.816 19.8997ZM27.354 5.38506C27.4871 5.15144 27.7082 4.98017 27.9684 4.90943C28.228 4.83869 28.5054 4.87406 28.739 5.00809L41.0571 12.1226C41.294 12.2589 41.4671 12.4837 41.5383 12.7476C41.6081 13.0096 41.5695 13.2884 41.4308 13.5215L35.8414 23.2017L21.7609 15.0727L27.354 5.38506ZM3.3835 2.0333H17.6166C18.1779 2.03423 18.6326 2.48892 18.6335 3.05019V14.2331H2.36662V3.05019C2.36755 2.48892 2.82224 2.03423 3.3835 2.0333ZM2.36662 57.9498V43.7167C2.36755 43.1554 2.82224 42.7007 3.3835 42.6998H16.6002V58.9667H3.3835C2.82224 58.9658 2.36755 58.5111 2.36662 57.9498ZM59.3 57.9498C59.2991 58.5111 58.8444 58.9658 58.2831 58.9667H47.1002V42.6998H58.2831C58.8444 42.7007 59.2991 43.1554 59.3 43.7167V57.9498Z" fill="#FBC324"/>
<path d="M10.4998 46.7668C8.25385 46.7668 6.43323 48.5875 6.43323 50.8335C6.43323 53.0794 8.25385 54.9001 10.4998 54.9001C12.7458 54.9001 14.5664 53.0794 14.5664 50.8335C14.5641 48.5884 12.7449 46.7692 10.4998 46.7668ZM10.4998 52.8668C9.37684 52.8668 8.46653 51.9564 8.46653 50.8335C8.46653 49.7105 9.37684 48.8001 10.4998 48.8001C11.6228 48.8001 12.5331 49.7105 12.5331 50.8335C12.5322 51.956 11.6224 52.8654 10.4998 52.8668Z" fill="#FBC324"/>
</g>
<defs>
<clipPath id="clip0_138_492">
<rect width="61" height="61" fill="white" transform="translate(0.333313)"/>
</clipPath>
</defs>
</svg>
