<svg width="43" height="43" viewBox="0 0 43 43" fill="none" xmlns="http://www.w3.org/2000/svg">
<g clip-path="url(#clip0_72_384)">
<path d="M26.7163 3.53989L23.8856 3.1376L22.6245 0.643946C22.1963 -0.204883 20.8037 -0.204883 20.3756 0.643946L19.1146 3.13769L16.2838 3.53997C15.2454 3.68678 14.8306 4.97333 15.5925 5.7003L17.6235 7.63168L17.145 10.3529C16.9659 11.377 18.041 12.1644 18.9621 11.6915L21.5 10.3875L24.038 11.6915C24.9719 12.1732 26.0323 11.3663 25.8551 10.3529L25.3765 7.63168L27.4077 5.70022C28.1695 4.97325 27.7547 3.68678 26.7163 3.53989Z" fill="white"/>
<path d="M41.9174 11.2227L39.0867 10.8205L37.8256 8.32681C37.3975 7.47798 36.0049 7.47798 35.5768 8.32681L34.3158 10.8205L31.485 11.2227C30.4465 11.3696 30.0317 12.6561 30.7936 13.3831L32.8248 15.3145L32.3463 18.0358C32.1671 19.0598 33.2423 19.8473 34.1633 19.3743L36.7012 18.0702L39.2392 19.3743C40.1777 19.8543 41.2326 19.0439 41.0563 18.0357L40.5777 15.3145L42.6089 13.383C43.3707 12.6561 42.9558 11.3696 41.9174 11.2227Z" fill="white"/>
<path d="M11.5152 11.2228L8.68441 10.8205L7.4233 8.32681C6.99515 7.47798 5.60252 7.47798 5.17445 8.32681L3.91343 10.8205L1.08266 11.2228C0.0441935 11.3696 -0.370605 12.6561 0.3913 13.3831L2.42246 15.3145L1.94392 18.0358C1.76478 19.0598 2.83994 19.8473 3.761 19.3743L6.29883 18.0702L8.83684 19.3743C9.77267 19.8544 10.8306 19.0459 10.6539 18.0358L10.1754 15.3145L12.2065 13.3831C12.9684 12.6561 12.5536 11.3696 11.5152 11.2228Z" fill="white"/>
<path d="M26.0416 27.5801C27.8625 26.1987 29.0586 24.0334 29.0586 21.5766C29.0586 17.4086 25.668 14.0181 21.5 14.0181C17.3319 14.0181 13.9414 17.4086 13.9414 21.5766C13.9414 24.0334 15.1375 26.1986 16.9584 27.5801C12.9645 29.3359 10.1621 33.3182 10.1621 37.9536V41.7329C10.1621 42.4292 10.7256 42.9926 11.4219 42.9926H31.5781C32.2744 42.9926 32.8378 42.4292 32.8378 41.7329V37.9536C32.8378 33.3182 30.0355 29.3359 26.0416 27.5801Z" fill="white"/>
</g>
<defs>
<clipPath id="clip0_72_384">
<rect width="43" height="43" fill="white"/>
</clipPath>
</defs>
</svg>
