<svg width="62" height="61" viewBox="0 0 62 61" fill="none" xmlns="http://www.w3.org/2000/svg">
<g clip-path="url(#clip0_10_205)">
<path d="M57.9593 22.4876C59.7982 22.4876 61.2941 20.9916 61.2941 19.1529V14.2849C61.2941 12.4455 59.798 10.9489 57.9593 10.9489H55.2584V7.15192C55.2584 6.45089 54.9884 5.78811 54.4981 5.28522L50.1294 0.806823C49.6224 0.286892 48.9433 0.000238282 48.2171 0.000119141C48.2166 0.000119141 48.2162 0.000119141 48.2157 0.000119141C47.4893 0.000119141 46.8098 0.286296 46.3015 0.806823L41.9337 5.28546C41.4435 5.78835 41.1736 6.45113 41.1736 7.15192V10.9489H36.9214V7.15192C36.9214 6.45018 36.6519 5.7874 36.1624 5.28522L31.7936 0.806823C31.2864 0.286534 30.6067 0.000119141 29.8798 0.000119141C29.8797 0.000119141 29.8797 0.000119141 29.8797 0.000119141C29.1527 0.000119141 28.473 0.286534 27.9659 0.806704L23.5968 5.28546C23.1074 5.78752 22.8379 6.4503 22.8379 7.15192V10.9489H18.5858V7.15192C18.5858 6.45113 18.3159 5.78835 17.8256 5.28534L13.4572 0.806347C12.9494 0.286296 12.2698 0 11.5434 0H11.5421C10.8158 0.000357423 10.1367 0.286892 9.63 0.806704L5.26097 5.28522C4.77154 5.78716 4.50192 6.45006 4.50192 7.1518V10.9488H3.70725C1.86843 10.9488 0.372495 12.4454 0.372495 14.2848V19.1528C0.372495 20.9916 1.86855 22.4875 3.70725 22.4875H4.50192V24.883C4.50192 25.3766 4.90188 25.7765 5.39548 25.7765C5.88908 25.7765 6.28904 25.3766 6.28904 24.883V7.1518C6.28904 6.919 6.37828 6.69918 6.54019 6.5331L10.9095 2.05435C11.0773 1.88219 11.3024 1.78724 11.5429 1.78712H11.5433C11.7843 1.78712 12.0101 1.88231 12.1783 2.05447L16.5459 6.53286C16.7088 6.6999 16.7985 6.91983 16.7985 7.1518V48.7797C12.9633 49.4022 9.4377 50.2837 6.28904 51.4062V28.4256C6.28904 27.932 5.88908 27.5321 5.39548 27.5321C4.90188 27.5321 4.50192 27.932 4.50192 28.4256V33.7524H3.70725C1.86843 33.7524 0.372495 35.249 0.372495 37.0884V41.9554C0.372495 43.7948 1.86855 45.2914 3.70725 45.2914H4.50192V52.084C3.94256 52.3103 3.38962 52.5486 2.85182 52.7952C1.34564 53.4866 0.372375 55.0011 0.372375 56.6537V59.3428C0.372375 60.2566 1.11582 61 2.02963 61H45.5041C45.9977 61 46.3977 60.6 46.3977 60.1064C46.3977 59.6128 45.9977 59.2129 45.5041 59.2129H2.15961V56.6537C2.15961 55.6974 2.72398 54.8203 3.59717 54.4196C4.28449 54.1044 4.99803 53.8032 5.71931 53.5239C9.24577 52.1531 13.3191 51.1111 17.8254 50.4269C19.7653 50.1342 21.7743 49.9111 23.7966 49.7638C29.7794 49.3313 36.0178 49.5258 41.9355 50.4129C46.4303 51.0865 50.504 52.1199 54.0434 53.4843C55.5688 54.0723 56.9764 54.7173 58.228 55.4018C59.0168 55.8326 59.5069 56.6584 59.5069 57.5568V59.2129H49.6473C49.1537 59.2129 48.7538 59.6128 48.7538 60.1064C48.7538 60.6 49.1537 61 49.6473 61H59.6367C60.5505 61 61.294 60.2566 61.294 59.3428V57.5568C61.294 56.0044 60.4474 54.5776 59.085 53.8337C57.9238 53.1986 56.6388 52.5973 55.2583 52.0424V45.2914H57.9592C59.798 45.2914 61.294 43.7948 61.294 41.9554V37.0884C61.294 35.249 59.7979 33.7524 57.9592 33.7524H55.2583V22.4876H57.9593ZM3.70725 20.7005C2.85385 20.7005 2.15961 20.0063 2.15961 19.1529V14.2849C2.15961 13.4309 2.85385 12.7361 3.70725 12.7361H4.50192V20.7006L3.70725 20.7005ZM57.9593 12.7359C58.8127 12.7359 59.507 13.4308 59.507 14.2848V19.1528C59.507 20.0062 58.8127 20.7004 57.9593 20.7004H55.2584V12.7358L57.9593 12.7359ZM36.9214 35.5396H41.1736V43.5042H36.9214V35.5396ZM41.1736 33.7524H36.9214V22.4876H41.1736V33.7524ZM36.9214 45.2912H41.1736V48.4992C39.7779 48.3092 38.3544 48.1542 36.9214 48.0377V45.2912ZM41.1736 12.7359V20.7005H36.9214V12.7359H41.1736ZM24.6249 7.1518C24.6249 6.919 24.7142 6.69918 24.876 6.5331L29.245 2.05447C29.4131 1.88207 29.6386 1.78724 29.8796 1.78724C30.1206 1.78724 30.3459 1.88207 30.5141 2.05459L34.8829 6.53286C35.0449 6.69918 35.1342 6.91888 35.1342 7.1518V47.9107C31.6368 47.7034 28.1218 47.7052 24.6247 47.9168V7.1518H24.6249ZM18.5856 35.5396H22.8376V43.5042H18.5856V35.5396ZM22.8377 33.7524H18.5857V22.4876H22.8377V33.7524ZM18.5856 45.2912H22.8376V48.0461C21.4041 48.1652 19.9809 48.3218 18.5856 48.5129V45.2912ZM22.8377 12.7359V20.7005H18.5857V12.7359H22.8377ZM3.70725 43.5041C2.85385 43.5041 2.15961 42.8093 2.15961 41.9553V37.0883C2.15961 36.2343 2.85385 35.5394 3.70725 35.5394H4.50192V43.5041H3.70725ZM53.4713 51.368C50.3133 50.2511 46.7872 49.3771 42.9607 48.7634V7.1518C42.9607 6.91983 43.0504 6.6999 43.2131 6.53298L47.5804 2.05495C47.7491 1.88231 47.9747 1.78724 48.2159 1.78724H48.2162C48.4569 1.78724 48.6818 1.88219 48.8499 2.05459L53.2187 6.53298C53.3815 6.6999 53.4712 6.91971 53.4712 7.1518V51.368H53.4713ZM57.9593 35.5396C58.8127 35.5396 59.507 36.2344 59.507 37.0884V41.9554C59.507 42.8094 58.8127 43.5042 57.9593 43.5042H55.2584V35.5396H57.9593Z" fill="#FBC324"/>
<path d="M11.5434 19.8985C13.2968 19.8985 14.7231 18.4721 14.7231 16.7188C14.7231 14.9655 13.2967 13.5389 11.5434 13.5389C9.79012 13.5389 8.36365 14.9655 8.36365 16.7188C8.36365 18.4721 9.79 19.8985 11.5434 19.8985ZM11.5434 15.3259C12.3113 15.3259 12.936 15.9507 12.936 16.7187C12.936 17.4865 12.3113 18.1113 11.5434 18.1113C10.7755 18.1113 10.1508 17.4865 10.1508 16.7187C10.1506 15.9507 10.7755 15.3259 11.5434 15.3259Z" fill="#FBC324"/>
<path d="M11.5434 42.7014C13.2968 42.7014 14.7231 41.2749 14.7231 39.5217C14.7231 37.7684 13.2967 36.3419 11.5434 36.3419C9.79012 36.3419 8.36365 37.7684 8.36365 39.5217C8.36365 41.2749 9.79 42.7014 11.5434 42.7014ZM11.5434 38.1289C12.3113 38.1289 12.936 38.7537 12.936 39.5215C12.936 40.2894 12.3113 40.9142 11.5434 40.9142C10.7755 40.9142 10.1508 40.2894 10.1508 39.5215C10.1508 38.7537 10.7755 38.1289 11.5434 38.1289Z" fill="#FBC324"/>
<path d="M48.2159 13.5388C46.4625 13.5388 45.036 14.9654 45.036 16.7187C45.036 18.472 46.4626 19.8984 48.2159 19.8984C49.9691 19.8984 51.3956 18.472 51.3956 16.7187C51.3956 14.9654 49.9693 13.5388 48.2159 13.5388ZM48.2159 18.1114C47.4479 18.1114 46.8231 17.4867 46.8231 16.7188C46.8231 15.9508 47.4479 15.326 48.2159 15.326C48.9837 15.326 49.6085 15.9508 49.6085 16.7188C49.6086 17.4865 48.9839 18.1114 48.2159 18.1114Z" fill="#FBC324"/>
<path d="M48.2159 36.3418C46.4625 36.3418 45.036 37.7683 45.036 39.5215C45.036 41.2748 46.4626 42.7013 48.2159 42.7013C49.9691 42.7013 51.3956 41.2748 51.3956 39.5215C51.3956 37.7683 49.9693 36.3418 48.2159 36.3418ZM48.2159 40.9143C47.4479 40.9143 46.8231 40.2895 46.8231 39.5217C46.8231 38.7538 47.4479 38.129 48.2159 38.129C48.9837 38.129 49.6085 38.7538 49.6085 39.5217C49.6085 40.2895 48.9839 40.9143 48.2159 40.9143Z" fill="#FBC324"/>
<path d="M29.8796 19.8985C31.633 19.8985 33.0594 18.4721 33.0594 16.7188C33.0594 14.9655 31.6328 13.5389 29.8796 13.5389C28.1263 13.5389 26.6998 14.9655 26.6998 16.7188C26.6998 18.4721 28.1262 19.8985 29.8796 19.8985ZM29.8796 15.3259C30.6476 15.3259 31.2723 15.9507 31.2723 16.7187C31.2723 17.4865 30.6476 18.1113 29.8796 18.1113C29.1117 18.1113 28.4869 17.4865 28.4869 16.7187C28.4869 15.9507 29.1117 15.3259 29.8796 15.3259Z" fill="#FBC324"/>
<path d="M29.8796 42.7014C31.633 42.7014 33.0594 41.2749 33.0594 39.5217C33.0594 37.7684 31.6328 36.3419 29.8796 36.3419C28.1263 36.3419 26.6998 37.7684 26.6998 39.5217C26.6998 41.2749 28.1262 42.7014 29.8796 42.7014ZM29.8796 38.1289C30.6476 38.1289 31.2723 38.7537 31.2723 39.5215C31.2723 40.2894 30.6476 40.9142 29.8796 40.9142C29.1117 40.9142 28.4869 40.2894 28.4869 39.5215C28.4869 38.7537 29.1117 38.1289 29.8796 38.1289Z" fill="#FBC324"/>
</g>
<defs>
<clipPath id="clip0_10_205">
<rect width="61" height="61" fill="white" transform="translate(0.333313)"/>
</clipPath>
</defs>
</svg>
