<svg width="61" height="61" viewBox="0 0 61 61" fill="none" xmlns="http://www.w3.org/2000/svg">
<g clip-path="url(#clip0_9_86)">
<path d="M59.7733 18.9653L53.5879 14.8407V5.48449H54.5444C55.038 5.48449 55.4379 5.08453 55.4379 4.59094V0.899244C55.4379 0.405763 55.0379 0.00568897 54.5444 0.00568897H43.4469C42.9533 0.00568897 42.5534 0.405644 42.5534 0.899244V4.59094C42.5534 5.08442 42.9534 5.48449 43.4469 5.48449H44.403V8.71594L32.0297 0.465214C31.1004 -0.154913 29.8994 -0.155151 28.9705 0.464976L16.6413 8.68651C16.2308 8.96042 16.1199 9.51514 16.3937 9.92569C16.6676 10.3363 17.2224 10.4472 17.6328 10.1734L29.9623 1.95161C30.2889 1.73347 30.711 1.7337 31.0378 1.95185L58.782 20.4522C59.2268 20.7487 59.3474 21.3525 59.0508 21.7981C58.9971 21.8785 58.5051 22.567 57.6962 22.0608L30.9958 4.25651C30.6954 4.05635 30.3044 4.05635 30.0042 4.25651L3.29355 22.0674C2.77123 22.3491 2.32315 22.2593 1.94928 21.7982C1.6525 21.3525 1.77296 20.7487 2.21818 20.452L14.3938 12.3329C14.8043 12.059 14.9152 11.5043 14.6415 11.0938C14.3677 10.6833 13.8131 10.5724 13.4023 10.8461L1.22681 18.9651C-0.0379819 19.8079 -0.381226 21.5232 0.46229 22.7895C1.5255 24.1005 2.79995 24.3553 4.28551 23.5541L7.412 21.4694V55.5037H4.60552C4.11204 55.5037 3.71197 55.9036 3.71197 56.3972V60.1064C3.71197 60.5999 4.11204 61 4.60552 61H30.4035C31.5763 60.9634 31.5953 59.2567 30.4035 59.2129H5.4992V57.2906H55.501V59.2129H34.2952C33.8016 59.2129 33.4017 59.6128 33.4017 60.1064C33.4017 60.6 33.8018 61 34.2952 61H56.3944C56.888 61 57.288 60.6 57.288 60.1064V56.3971C57.288 55.9036 56.8879 55.5035 56.3944 55.5035H53.5879V41.6849C53.5879 41.1914 53.1878 40.7913 52.6944 40.7913C52.2008 40.7913 51.8008 41.1913 51.8008 41.6849V55.5012H35.506C35.8307 54.9559 36.0175 54.3193 36.0175 53.6398V41.5823C36.0175 41.0888 35.6175 40.6888 35.124 40.6888H33.2431V37.3533C33.2431 36.1816 32.4946 35.1568 31.3794 34.8002L17.2368 30.0412C17.2316 30.0394 17.2262 30.0377 17.2208 30.036C16.8477 29.9182 16.597 29.5759 16.597 29.1843V24.8688C16.597 24.3761 16.9975 23.9755 17.4897 23.9755H18.5086V24.9952C18.5086 26.4731 19.7109 27.6755 21.1885 27.6755H29.6063V28.6438C29.7456 32.2803 34.9555 32.276 35.0927 28.6438C35.0927 28.1163 35.5216 27.6872 36.0486 27.6872C36.5757 27.6872 37.0046 28.1162 37.0046 28.6438V32.3438C37.0046 33.8566 38.2352 35.0874 39.7478 35.0874C41.2604 35.0874 42.4909 33.8566 42.4909 32.3438V27.6755H43.5103C44.988 27.6755 46.1901 26.4731 46.1901 24.9952V21.169C46.1901 19.6911 44.988 18.4887 43.5103 18.4887H21.1885C19.7108 18.4887 18.5086 19.6911 18.5086 21.169V22.1882H17.4897C16.012 22.1882 14.8098 23.3907 14.8098 24.8687V29.1842C14.8098 30.3561 15.5585 31.3809 16.6739 31.7371L30.8161 36.4962C30.8215 36.498 30.8267 36.4997 30.8319 36.5013C31.2052 36.6193 31.4559 36.9616 31.4559 37.3532V40.6886H29.5751C29.0817 40.6886 28.6816 41.0886 28.6816 41.5822V53.6397C28.6816 54.3192 28.8684 54.9557 29.1932 55.501H23.9953V37.8938C23.9953 37.4004 23.5952 37.0003 23.1017 37.0003H12.0043C11.5108 37.0003 11.1107 37.4002 11.1107 37.8938V55.5012H9.19923V20.2776L30.5 6.074L51.8008 20.2776V37.7909C51.8008 38.2844 52.2009 38.6845 52.6944 38.6845C53.188 38.6845 53.5879 38.2845 53.5879 37.7909V21.4692L56.7144 23.554C57.985 24.4096 59.7022 24.0429 60.5381 22.7887C61.381 21.5232 61.0379 19.8079 59.7733 18.9653ZM44.3406 1.7928H53.6508V3.69738H44.3406V1.7928ZM46.1901 5.48854H51.8007V13.649L46.1901 9.90771V5.48854ZM40.7038 32.3437C40.6588 33.6099 38.8364 33.6091 38.7919 32.3437V28.6436C38.7919 27.1308 37.5614 25.9 36.0488 25.9C34.5361 25.9 33.3057 27.1308 33.3057 28.6436C33.2615 29.9088 31.4384 29.9097 31.3937 28.6436V24.9319C31.3937 23.4191 30.1631 22.1882 28.6505 22.1882C28.1234 22.1882 27.6945 21.7592 27.6945 21.2318V20.276L40.7038 20.2862V32.3437ZM44.403 21.169V24.9952C44.403 25.4877 44.0026 25.8884 43.5104 25.8884H42.491V20.2759H43.5104C44.0026 20.2758 44.403 20.6765 44.403 21.169ZM21.1885 20.2758H25.9073V21.2318C25.9073 22.7446 27.1378 23.9754 28.6504 23.9754C29.1774 23.9754 29.6063 24.4044 29.6063 24.9319V25.8883H21.1885C20.6963 25.8883 20.2957 25.4876 20.2957 24.9951V21.1689C20.2957 20.6765 20.6963 20.2758 21.1885 20.2758ZM30.4688 42.4759H34.2303V53.6398C34.2303 54.7574 33.2998 55.5007 32.3297 55.5007C31.3035 55.5007 30.4687 54.6659 30.4687 53.6398V42.4759H30.4688ZM12.8979 38.7874H22.2082V55.5007H12.8979V38.7874Z" fill="#FBC324"/>
<path d="M39.7421 37.0002C38.2327 37.0002 37.0047 38.2283 37.0047 39.738C37.1423 43.3651 42.3424 43.3641 42.4795 39.738C42.4794 38.2283 41.2514 37.0002 39.7421 37.0002ZM39.7421 40.6887C39.2181 40.6887 38.7918 40.2622 38.7918 39.738C38.8365 38.4799 40.6478 38.48 40.6923 39.738C40.6921 40.2622 40.266 40.6887 39.7421 40.6887Z" fill="#FBC324"/>
</g>
<defs>
<clipPath id="clip0_9_86">
<rect width="61" height="61" fill="white"/>
</clipPath>
</defs>
</svg>
