<svg width="79" height="60" viewBox="0 0 79 60" fill="none" xmlns="http://www.w3.org/2000/svg">
<path d="M40.5435 0.714192L42.2661 6.01603H47.8406C48.0588 6.01603 48.2714 6.08511 48.4479 6.21336C48.6244 6.34161 48.7558 6.52245 48.8233 6.72996C48.8907 6.93748 48.8907 7.16102 48.8233 7.36854C48.7559 7.57607 48.6246 7.75694 48.4481 7.88522L43.938 11.1622L45.6607 16.464C45.7281 16.6715 45.7282 16.8951 45.6607 17.1026C45.5933 17.3102 45.4619 17.4911 45.2853 17.6193C45.1088 17.7476 44.8962 17.8166 44.6779 17.8166C44.4597 17.8165 44.2471 17.7474 44.0706 17.6191L39.5607 14.3421L35.0508 17.6191C34.8743 17.7474 34.6617 17.8165 34.4435 17.8166C34.2253 17.8166 34.0126 17.7476 33.8361 17.6193C33.6595 17.4911 33.5281 17.3102 33.4607 17.1026C33.3933 16.8951 33.3933 16.6715 33.4608 16.464L35.1834 11.1618L30.6734 7.88489C30.4969 7.7566 30.3655 7.57574 30.2981 7.36821C30.2307 7.16068 30.2307 6.93715 30.2982 6.72963C30.3656 6.52212 30.497 6.34128 30.6735 6.21303C30.8501 6.08478 31.0627 6.0157 31.2808 6.0157H36.8553L38.578 0.71386C38.6454 0.506331 38.7769 0.325488 38.9534 0.19725C39.13 0.0690122 39.3426 -3.69214e-05 39.5608 1.48109e-08C39.7791 3.6951e-05 39.9917 0.0691581 40.1682 0.197456C40.3447 0.325753 40.4761 0.506641 40.5435 0.714192Z" fill="#FBB540"/>
<path d="M19.7729 10.4019L21.1369 14.6019H25.553C25.7258 14.602 25.8941 14.6568 26.0339 14.7584C26.1736 14.8599 26.2776 15.0031 26.3311 15.1675C26.3845 15.3318 26.3845 15.5088 26.3312 15.6731C26.2779 15.8375 26.1739 15.9807 26.0342 16.0824L22.4615 18.6773L23.8255 22.8773C23.8789 23.0417 23.8788 23.2188 23.8253 23.3831C23.7719 23.5475 23.6678 23.6907 23.5279 23.7922C23.3881 23.8938 23.2197 23.9485 23.0469 23.9485C22.874 23.9485 22.7056 23.8938 22.5658 23.7922L18.9931 21.1964L15.4204 23.7922C15.2806 23.8937 15.1122 23.9484 14.9394 23.9483C14.7666 23.9483 14.5983 23.8936 14.4585 23.7921C14.3187 23.6905 14.2146 23.5473 14.1611 23.383C14.1077 23.2187 14.1076 23.0417 14.1609 22.8773L15.5249 18.6773L11.9522 16.0824C11.8125 15.9807 11.7085 15.8375 11.6552 15.6732C11.6019 15.5088 11.6019 15.3318 11.6553 15.1675C11.7087 15.0032 11.8127 14.86 11.9524 14.7584C12.0922 14.6568 12.2605 14.6021 12.4332 14.6019H16.8493L18.2133 10.4019C18.2661 10.2366 18.3701 10.0923 18.5102 9.98986C18.6504 9.88746 18.8195 9.83228 18.9931 9.83228C19.1667 9.83228 19.3358 9.88746 19.476 9.98986C19.6162 10.0923 19.7201 10.2366 19.7729 10.4019Z" fill="#FBB540"/>
<path d="M9.00662 27.7016L10.3706 31.9016H14.7874C14.9601 31.9018 15.1284 31.9565 15.2682 32.0581C15.4079 32.1597 15.5119 32.3029 15.5653 32.4672C15.6187 32.6315 15.6187 32.8085 15.5654 32.9729C15.5121 33.1372 15.4081 33.2804 15.2684 33.3821L11.6957 35.977L13.0597 40.177C13.113 40.3414 13.1129 40.5184 13.0595 40.6827C13.006 40.847 12.9019 40.9902 12.7621 41.0918C12.6223 41.1933 12.454 41.248 12.2812 41.248C12.1084 41.2481 11.94 41.1934 11.8002 41.0919L8.22814 38.4974L4.65544 41.0932C4.51561 41.1948 4.34722 41.2495 4.17439 41.2495C4.00156 41.2495 3.83316 41.1948 3.69332 41.0933C3.55348 40.9917 3.44937 40.8485 3.39592 40.6841C3.34246 40.5198 3.34239 40.3427 3.39572 40.1783L4.75973 35.9784L1.18703 33.3834C1.04732 33.2817 0.94337 33.1385 0.890051 32.9741C0.836731 32.8098 0.836781 32.6328 0.890193 32.4685C0.943604 32.3042 1.04764 32.161 1.1874 32.0594C1.32716 31.9578 1.49548 31.903 1.66826 31.903H6.08498L7.44899 27.703C7.50212 27.5383 7.60607 27.3947 7.74591 27.2928C7.88575 27.1909 8.05429 27.1359 8.22732 27.1357C8.40036 27.1356 8.56899 27.1903 8.70901 27.292C8.84902 27.3936 8.95321 27.5371 9.00662 27.7016Z" fill="#FBB540"/>
<path d="M71.5513 27.7016L72.9153 31.9016H77.332C77.5048 31.9017 77.6731 31.9565 77.8128 32.0581C77.9526 32.1597 78.0566 32.3029 78.11 32.4672C78.1634 32.6315 78.1634 32.8085 78.1101 32.9728C78.0567 33.1371 77.9528 33.2804 77.8131 33.382L74.2404 35.977L75.6044 40.1769C75.6577 40.3413 75.6576 40.5183 75.6041 40.6826C75.5507 40.8469 75.4466 40.9901 75.3068 41.0917C75.167 41.1932 74.9986 41.2479 74.8259 41.248C74.6531 41.248 74.4847 41.1933 74.3449 41.0918L70.7722 38.496L67.2001 41.0931C67.0603 41.1947 66.8919 41.2494 66.7191 41.2494C66.5462 41.2495 66.3778 41.1948 66.238 41.0932C66.0982 40.9916 65.9941 40.8484 65.9406 40.6841C65.8871 40.5197 65.8871 40.3427 65.9404 40.1783L67.3044 35.9783L63.7317 33.3833C63.592 33.2817 63.488 33.1384 63.4347 32.9741C63.3814 32.8097 63.3815 32.6327 63.4349 32.4684C63.4883 32.3041 63.5923 32.1609 63.7321 32.0593C63.8718 31.9577 64.0402 31.903 64.2129 31.9029H68.629L69.993 27.7029C70.046 27.538 70.1499 27.3941 70.2898 27.292C70.4297 27.1899 70.5984 27.1348 70.7717 27.1346C70.9449 27.1345 71.1137 27.1893 71.2538 27.2912C71.3939 27.3931 71.4981 27.5367 71.5513 27.7016Z" fill="#FBB540"/>
<path d="M60.9056 10.402L62.2696 14.602H66.6863C66.8591 14.6021 67.0273 14.6569 67.1671 14.7585C67.3068 14.8601 67.4108 15.0033 67.4642 15.1676C67.5176 15.3319 67.5176 15.5089 67.4643 15.6732C67.411 15.8376 67.307 15.9808 67.1674 16.0824L63.5946 18.6774L64.9587 22.8774C65.0119 23.0417 65.0119 23.2188 64.9584 23.3831C64.9049 23.5474 64.8009 23.6906 64.6611 23.7921C64.5212 23.8937 64.3529 23.9484 64.1801 23.9484C64.0073 23.9484 63.8389 23.8938 63.6991 23.7923L60.1264 21.1965L56.5544 23.7936C56.4145 23.8952 56.2461 23.9499 56.0733 23.9499C55.9005 23.9499 55.7321 23.8952 55.5923 23.7936C55.4524 23.6921 55.3483 23.5489 55.2948 23.3845C55.2414 23.2202 55.2413 23.0431 55.2947 22.8787L56.6587 18.6787L53.086 16.0838C52.9463 15.9821 52.8423 15.8389 52.789 15.6745C52.7357 15.5102 52.7357 15.3332 52.7891 15.1689C52.8425 15.0045 52.9466 14.8613 53.0863 14.7598C53.2261 14.6582 53.3944 14.6034 53.5672 14.6033H57.9832L59.3473 10.4033C59.4002 10.2384 59.5041 10.0946 59.6441 9.99244C59.784 9.89033 59.9527 9.83523 60.1259 9.83508C60.2991 9.83494 60.4679 9.88974 60.608 9.99162C60.7481 10.0935 60.8523 10.2372 60.9056 10.402Z" fill="#FBB540"/>
<path d="M20.9304 38.7073H31.5763V57.3376H20.9304V38.7073Z" fill="#0296E5"/>
<path d="M55.5297 38.7081H44.8838V30.7237C44.8838 29.6649 44.4632 28.6494 43.7145 27.9007C42.9658 27.1521 41.9504 26.7314 40.8916 26.7314H38.2301L37.7411 30.1553C37.4814 31.973 36.7849 33.7007 35.7112 35.1903C34.6376 36.6799 33.2188 37.887 31.5764 38.7081V57.3385L32.7827 58.1427C34.5992 59.3538 36.7336 60 38.9168 60H54.199C54.9049 60 55.5818 59.7195 56.081 59.2204C56.5801 58.7213 56.8605 58.0443 56.8605 57.3385C56.8605 56.6326 56.5801 55.9556 56.081 55.4565C55.5818 54.9574 54.9049 54.677 54.199 54.677C54.9049 54.677 55.5818 54.3966 56.081 53.8975C56.5801 53.3983 56.8605 52.7214 56.8605 52.0155C56.8605 51.3096 56.5801 50.6327 56.081 50.1336C55.5818 49.6344 54.9049 49.354 54.199 49.354C54.9049 49.354 55.5818 49.0736 56.081 48.5745C56.5801 48.0754 56.8605 47.3984 56.8605 46.6926C56.8605 45.9867 56.5801 45.3097 56.081 44.8106C55.5818 44.3115 54.9049 44.0311 54.199 44.0311H55.5297C56.2356 44.0311 56.9126 43.7507 57.4117 43.2515C57.9108 42.7524 58.1912 42.0755 58.1912 41.3696C58.1912 40.6637 57.9108 39.9868 57.4117 39.4876C56.9126 38.9885 56.2356 38.7081 55.5297 38.7081Z" fill="#FDC9A6"/>
</svg>
