<svg width="50" height="50" viewBox="0 0 50 50" fill="none" xmlns="http://www.w3.org/2000/svg">
<path d="M47.9313 12.376C47.9313 8.4755 43.5193 6.249 40.4298 8.5865L37.5078 10.8V10.8065L25.0008 20.274L12.4938 10.8L9.57831 8.5925C6.48231 6.255 2.07031 8.482 2.07031 12.382V16.5885V39.209C2.07031 40.954 3.46981 42.367 5.19881 42.367H12.4938V24.4805L25.0008 33.948L37.5078 24.4805V24.474L37.5223 24.463L37.5078 24.4805V42.367H44.8028C46.5313 42.367 47.9313 40.954 47.9313 39.209V16.589L47.9123 16.5965L47.9313 16.5825V12.376Z" fill="#B5332A"/>
<path d="M5.19881 42.367H12.4938V24.4805L2.07031 16.589V39.2095C2.07031 40.954 3.46981 42.367 5.19881 42.367Z" fill="#4E85EB"/>
<path d="M37.5078 42.367H44.8028C46.5313 42.367 47.9313 40.954 47.9313 39.209V16.589L37.5078 24.4805V42.367Z" fill="#58A45C"/>
<path d="M37.5078 10.8V24.474L47.9313 16.5825V12.376C47.9313 8.4755 43.5193 6.249 40.4298 8.5865L37.5078 10.8Z" fill="#F2BC42"/>
<path d="M12.4941 24.4805V10.8L25.0011 20.274L37.5081 10.8065V24.4805L25.0011 33.948L12.4941 24.4805Z" fill="#D85040"/>
<path d="M2.07031 12.3825V16.589L12.4938 24.4805V10.8L9.57831 8.59247C6.48231 6.25547 2.07031 8.48197 2.07031 12.3825Z" fill="#B5332A"/>
</svg>
