<svg width="33" height="33" viewBox="0 0 33 33" fill="none" xmlns="http://www.w3.org/2000/svg">
<g clip-path="url(#clip0_101_552)">
<path d="M31.754 13.6315L18.2936 13.6309C17.6992 13.6309 17.2174 14.1126 17.2174 14.707V19.007C17.2174 19.6012 17.6992 20.0831 18.2935 20.0831H25.8736C25.0436 22.2372 23.4944 24.0411 21.5179 25.1874L24.75 30.7825C29.9347 27.7839 33 22.5227 33 16.6331C33 15.7945 32.9382 15.195 32.8146 14.52C32.7206 14.0071 32.2753 13.6315 31.754 13.6315Z" fill="#167EE6"/>
<path d="M16.5 26.5436C12.7905 26.5436 9.55208 24.5168 7.81281 21.5176L2.2179 24.7424C5.06511 29.6771 10.3989 33.0001 16.5 33.0001C19.493 33.0001 22.3172 32.1942 24.75 30.7899V30.7822L21.5179 25.187C20.0394 26.0445 18.3286 26.5436 16.5 26.5436Z" fill="#12B347"/>
<path d="M24.75 30.7894V30.7817L21.5179 25.1865C20.0394 26.0439 18.3287 26.5431 16.5 26.5431V32.9996C19.493 32.9996 22.3173 32.1937 24.75 30.7894Z" fill="#0F993E"/>
<path d="M6.45653 16.5001C6.45653 14.6717 6.95552 12.961 7.81281 11.4827L2.2179 8.25781C0.805793 10.683 0 13.4995 0 16.5001C0 19.5008 0.805793 22.3173 2.2179 24.7425L7.81281 21.5176C6.95552 20.0393 6.45653 18.3286 6.45653 16.5001Z" fill="#FFD500"/>
<path d="M16.5 6.45653C18.919 6.45653 21.1409 7.31607 22.8765 8.74584C23.3046 9.09853 23.9269 9.07307 24.3191 8.68087L27.3658 5.63417C27.8108 5.18919 27.7791 4.4608 27.3038 4.04843C24.396 1.5258 20.6126 0 16.5 0C10.3989 0 5.06511 3.32301 2.2179 8.25767L7.81281 11.4825C9.55208 8.48332 12.7905 6.45653 16.5 6.45653Z" fill="#FF4B26"/>
<path d="M22.8765 8.74584C23.3046 9.09853 23.927 9.07307 24.3191 8.68087L27.3658 5.63417C27.8107 5.18919 27.779 4.4608 27.3038 4.04843C24.396 1.52573 20.6126 0 16.5 0V6.45653C18.9189 6.45653 21.1409 7.31607 22.8765 8.74584Z" fill="#D93F21"/>
</g>
<defs>
<clipPath id="clip0_101_552">
<rect width="33" height="33" fill="white"/>
</clipPath>
</defs>
</svg>
