<svg width="44" height="44" viewBox="0 0 44 44" fill="none" xmlns="http://www.w3.org/2000/svg">
<path d="M42.955 18.4878C40.4375 20.2081 37.5775 21.3634 34.5714 21.8742C30.6429 22.5185 27.0993 23.2728 24.1843 26.0464C21.8586 28.2857 20.4286 31.3578 20.4286 40.0242C20.6322 41.2898 21.2127 42.4645 22.0943 43.3949C24.9072 37.6839 29.1653 32.8082 34.4457 29.2521C34.8102 29.0004 35.3097 29.0919 35.5614 29.4564C35.8131 29.8209 35.7217 30.3204 35.3571 30.5721C30.3438 33.9653 26.2857 38.5888 23.5714 43.9999C31.5621 44.4714 38.5471 41.2657 42.0593 33.6599C44.269 28.8986 44.5891 23.4761 42.955 18.4878Z" fill="white"/>
<path d="M8.16357 21.3322C5.5542 20.9109 3.06529 19.9357 0.864286 18.4722C-2.63214 28.3879 4.48643 42.0829 18.3857 39.5372C15.4467 35.2901 11.7303 31.6377 7.43286 28.7729C7.16184 28.5048 7.12229 28.0809 7.33906 27.7674C7.55583 27.4539 7.96637 27.3411 8.31286 27.5C12.3884 30.2272 15.97 33.6281 18.9043 37.5572C18.9069 34.783 19.3417 32.0261 20.1929 29.3857C19.525 27.6858 18.5017 26.1482 17.1914 24.8757C14.6693 22.5265 11.7307 21.8979 8.16357 21.3322Z" fill="white"/>
<path d="M22 20.8843L31.955 10.8114C33.1339 9.61971 33.7923 8.00918 33.7857 6.33286C33.7754 3.81062 32.2585 1.53879 29.9328 0.562618C27.6071 -0.413559 24.9231 0.0949898 23.1157 1.85429L22.5579 2.41214C22.4103 2.56089 22.2095 2.64456 22 2.64456C21.7905 2.64456 21.5897 2.56089 21.4421 2.41214L20.8921 1.86214C19.7381 0.675952 18.1549 0.00470825 16.5 0C10.9371 0 8.14786 6.84357 12.0764 10.8036L22 20.8843ZM16.5 1.57143C16.8167 1.57738 17.1322 1.61156 17.4429 1.67357C17.8768 1.7647 18.1547 2.19035 18.0636 2.62429C17.9724 3.05822 17.5468 3.33613 17.1129 3.245C16.913 3.18836 16.7074 3.15411 16.5 3.14286C16.0661 3.14286 15.7143 2.79108 15.7143 2.35714C15.7143 2.14876 15.7971 1.94891 15.9444 1.80156C16.0918 1.65421 16.2916 1.57143 16.5 1.57143ZM13.1686 2.96214C13.3665 2.76284 13.6557 2.68425 13.9272 2.75599C14.1988 2.82772 14.4114 3.03888 14.4851 3.30992C14.5587 3.58096 14.4822 3.8707 14.2843 4.07C13.1735 5.20484 13.0471 6.9769 13.9857 8.25786C14.1797 8.48043 14.2325 8.79296 14.1225 9.06693C14.0125 9.34089 13.7581 9.53005 13.4641 9.55662C13.17 9.58318 12.8859 9.44267 12.7286 9.19286C11.3295 7.28849 11.5157 4.65098 13.1686 2.96214Z" fill="white"/>
</svg>
