<svg width="58" height="58" viewBox="0 0 58 58" fill="none" xmlns="http://www.w3.org/2000/svg">
<g clip-path="url(#clip0_9_95)">
<path d="M56.8672 9.62109H24.4984C23.8728 9.62109 23.3656 10.1284 23.3656 10.7539V15.7714C22.2833 14.8736 20.8943 14.3333 19.3815 14.3333H9.45536C6.39597 14.3333 3.84295 16.543 3.30849 19.4503H1.13281C0.50716 19.4503 0 19.9576 0 20.5831V30.1402C0 30.7657 0.50716 31.273 1.13281 31.273H13.2856V34.0832H9.1913C8.56565 34.0832 8.05849 34.5904 8.05849 35.216V40.101C8.05849 40.7265 8.56565 41.2338 9.1913 41.2338H10.3207V47.2462C10.3207 47.8718 10.8279 48.379 11.4535 48.379H17.3833C18.009 48.379 18.5162 47.8718 18.5162 47.2462V41.2338H19.6456C20.2712 41.2338 20.7784 40.7265 20.7784 40.101V35.216C20.7784 34.5904 20.2712 34.0832 19.6456 34.0832H15.5512V30.1402C15.5512 29.5146 15.0441 29.0074 14.4184 29.0074H2.26562V21.7159H3.30849C3.84295 24.6232 6.39597 26.8328 9.45536 26.8328H19.3816C20.8944 26.8328 22.2833 26.2925 23.3657 25.3948V47.2463C23.3657 47.8719 23.8729 48.3791 24.4985 48.3791H56.8672C57.4928 48.3791 58 47.8719 58 47.2463V10.7539C58 10.1283 57.4928 9.62109 56.8672 9.62109ZM16.2505 46.1133H12.5863V41.2337H16.2505V46.1133ZM18.5128 38.9681H10.3241V36.3487H18.5128V38.9681ZM25.6312 11.8867H55.7341V31.1981C55.7341 32.5482 54.6358 33.6466 53.2856 33.6466C51.9354 33.6466 50.837 32.5482 50.837 31.1981V28.2124C50.837 27.7233 50.5231 27.2895 50.0586 27.1364C49.5941 26.9835 49.084 27.1457 48.7932 27.5391C48.3927 28.0808 47.7776 28.3916 47.1054 28.3916C45.9493 28.3916 45.0087 27.4509 45.0087 26.2947C45.0087 25.6692 44.5015 25.1619 43.8759 25.1619C43.2502 25.1619 42.7431 25.6692 42.7431 26.2947V32.8861C42.7431 34.0423 41.8025 34.9828 40.6463 34.9828C39.4902 34.9828 38.5496 34.0423 38.5496 32.8861V29.6952C38.5475 27.2918 36.5905 25.3366 34.1871 25.3366C31.7838 25.3366 29.8267 27.2918 29.8248 29.6961V38.5036C29.8248 39.6598 28.8842 40.6005 27.7281 40.6005C26.5719 40.6005 25.6314 39.6598 25.6314 38.5036V11.8867H25.6312ZM9.45536 16.5988H19.3816C21.1851 16.5988 22.7126 17.8033 23.2017 19.4502H5.63518C6.12444 17.8034 7.65181 16.5988 9.45536 16.5988ZM19.3815 24.5671H9.45536C7.65192 24.5671 6.12444 23.3626 5.63529 21.7158H23.2017C22.7124 23.3626 21.185 24.5671 19.3815 24.5671ZM25.6312 46.1133V42.3281C26.2538 42.6708 26.9685 42.866 27.728 42.866C30.1334 42.866 32.0903 40.909 32.0903 38.5035V29.697C32.0912 28.5419 33.0319 27.6021 34.187 27.6021C35.3422 27.6021 36.2829 28.5419 36.2839 29.696V32.8859C36.2839 35.2912 38.2408 37.2482 40.6462 37.2482C43.0516 37.2482 45.0086 35.2913 45.0086 32.8859V30.1192C45.6312 30.4619 46.3459 30.657 47.1053 30.657C47.6097 30.657 48.1054 30.5682 48.5713 30.4012V31.1979C48.5713 33.7972 50.686 35.912 53.2855 35.912C54.1816 35.912 55.0201 35.6606 55.7343 35.2247V46.1131H25.6312V46.1133Z" fill="#FBC324"/>
</g>
<defs>
<clipPath id="clip0_9_95">
<rect width="58" height="58" fill="white"/>
</clipPath>
</defs>
</svg>
