<svg width="32" height="33" viewBox="0 0 32 33" fill="none" xmlns="http://www.w3.org/2000/svg">
<g clip-path="url(#clip0_62_617)">
<path d="M19.375 12.375C19.03 12.375 18.75 12.655 18.75 13C18.75 13.345 19.03 13.625 19.375 13.625C19.72 13.625 20 13.345 20 13C20 12.655 19.72 12.375 19.375 12.375Z" fill="#FBC324"/>
<path d="M31.2676 28.2324L22.9251 19.8899C24.2841 17.8428 25 15.4722 25 13C25 6.1075 19.3925 0.5 12.5 0.5C5.6075 0.5 0 6.1075 0 13C0 19.8925 5.6075 25.5 12.5 25.5C14.9722 25.5 17.3429 24.7841 19.3899 23.4251L21.6959 25.7311C21.6962 25.7314 21.6965 25.7317 21.6969 25.7321L27.7324 31.7676C28.2048 32.2399 28.8324 32.5 29.5 32.5C30.1676 32.5 30.7953 32.2399 31.2674 31.7677C31.7398 31.2957 32 30.6679 32 30C32 29.3321 31.7398 28.7043 31.2676 28.2324ZM19.096 22.1079L19.0959 22.1081C17.1667 23.5093 14.8859 24.25 12.5 24.25C6.29675 24.25 1.25 19.2033 1.25 13C1.25 6.79675 6.29675 1.75 12.5 1.75C18.7033 1.75 23.75 6.79675 23.75 13C23.75 15.3859 23.0093 17.6667 21.608 19.5959C20.9069 20.5618 20.0618 21.4069 19.096 22.1079ZM20.4072 22.6746C21.0541 22.1454 21.6454 21.5541 22.1746 20.9072L23.9478 22.6804C23.4085 23.3169 22.8169 23.9086 22.1804 24.4478L20.4072 22.6746ZM30.3837 30.8837C30.1474 31.1199 29.8336 31.25 29.5 31.25C29.1664 31.25 28.8526 31.1199 28.6163 30.8837L23.0666 25.334C23.6996 24.7908 24.2908 24.1996 24.8339 23.5667L30.3838 29.1166C30.6199 29.3524 30.75 29.6661 30.75 30C30.75 30.3339 30.6199 30.6476 30.3837 30.8837Z" fill="#FBC324"/>
<path d="M12.5 3C6.98594 3 2.5 7.48594 2.5 13C2.5 18.5141 6.98594 23 12.5 23C18.0141 23 22.5 18.5141 22.5 13C22.5 7.48594 18.0141 3 12.5 3ZM12.5 21.75C7.67525 21.75 3.75 17.8247 3.75 13C3.75 8.17525 7.67525 4.25 12.5 4.25C17.3247 4.25 21.25 8.17525 21.25 13C21.25 17.8247 17.3247 21.75 12.5 21.75Z" fill="#FBC324"/>
<path d="M19.5041 10.3171C18.9659 8.91631 18.0288 7.71869 16.7941 6.85375C15.5299 5.96813 14.0451 5.5 12.5 5.5C12.1549 5.5 11.875 5.77988 11.875 6.125C11.875 6.47012 12.1549 6.75 12.5 6.75C15.0687 6.75 17.4144 8.36362 18.3372 10.7654C18.4327 11.0139 18.6696 11.1664 18.9208 11.1664C18.9953 11.1664 19.0711 11.153 19.1448 11.1247C19.467 11.0009 19.6279 10.6393 19.5041 10.3171Z" fill="#FBC324"/>
</g>
<defs>
<clipPath id="clip0_62_617">
<rect width="32" height="32" fill="white" transform="translate(0 0.5)"/>
</clipPath>
</defs>
</svg>
