<svg width="24" height="25" viewBox="0 0 24 25" fill="none" xmlns="http://www.w3.org/2000/svg">
<g clip-path="url(#clip0_0_361)">
<path d="M20 4.65625H4C2.9 4.65625 2 5.55625 2 6.65625V18.6562C2 19.7563 2.9 20.6562 4 20.6562H20C21.1 20.6562 22 19.7563 22 18.6562V6.65625C22 5.55625 21.1 4.65625 20 4.65625ZM19.6 8.90625L13.06 12.9963C12.41 13.4063 11.59 13.4063 10.94 12.9963L4.4 8.90625C4.15 8.74625 4 8.47625 4 8.18625C4 7.51625 4.73 7.11625 5.3 7.46625L12 11.6562L18.7 7.46625C19.27 7.11625 20 7.51625 20 8.18625C20 8.47625 19.85 8.74625 19.6 8.90625Z" fill="#1A1A1A"/>
</g>
<defs>
<clipPath id="clip0_0_361">
<rect width="24" height="24" fill="white" transform="translate(0 0.65625)"/>
</clipPath>
</defs>
</svg>
