<svg width="32" height="33" viewBox="0 0 32 33" fill="none" xmlns="http://www.w3.org/2000/svg">
<g clip-path="url(#clip0_62_575)">
<path d="M9.81756 8.60698C11.439 9.04564 13.6347 9.28724 16.0001 9.28724C18.3655 9.28724 20.5612 9.04564 22.1826 8.60698C24.1708 8.06914 25.1789 7.27044 25.1789 6.23297C25.1789 5.19558 24.1708 4.39681 22.1826 3.85896C20.5611 3.4203 18.3655 3.17871 16.0001 3.17871C13.6347 3.17871 11.4391 3.4203 9.81756 3.85896C7.82936 4.39681 6.82129 5.19558 6.82129 6.23297C6.82129 7.27037 7.82936 8.06906 9.81756 8.60698ZM10.1957 5.25668C11.6974 4.85039 13.7588 4.62667 16.0001 4.62667C18.2414 4.62667 20.3028 4.85039 21.8045 5.25668C23.396 5.68724 23.7309 6.15811 23.7309 6.23297C23.7309 6.30783 23.3961 6.77871 21.8045 7.20926C20.3028 7.61549 18.2414 7.83927 16.0001 7.83927C13.7588 7.83927 11.6974 7.61556 10.1957 7.20926C8.60417 6.77871 8.26925 6.30783 8.26925 6.23297C8.26925 6.15811 8.60409 5.68716 10.1957 5.25668Z" fill="black"/>
<path d="M24.4783 2.02652C22.2018 1.04212 19.1908 0.5 16.0001 0.5C12.8093 0.5 9.79837 1.04212 7.52181 2.02652C5.05238 3.09439 3.69238 4.58825 3.69238 6.233V24.513C3.69238 26.7114 5.01785 28.7531 7.42458 30.2622C9.72619 31.7052 12.7717 32.5 16.0001 32.5C19.2285 32.5 22.274 31.7052 24.5756 30.2621C26.9823 28.7531 28.3078 26.7113 28.3078 24.513V6.233C28.3078 4.58825 26.9478 3.09439 24.4783 2.02652ZM8.09651 3.3556C10.1957 2.44787 13.0026 1.94796 16.0001 1.94796C18.9976 1.94796 21.8045 2.44787 23.9036 3.3556C25.7823 4.16798 26.8598 5.21667 26.8598 6.233C26.8598 7.29356 25.7043 8.37511 23.6895 9.20024C23.4176 9.31158 23.2399 9.57634 23.2399 9.87021V18.5508C23.2399 18.7904 23.0451 18.9852 22.8055 18.9852C22.5659 18.9852 22.3711 18.7904 22.3711 18.5508V10.6071C22.3711 10.3851 22.2693 10.1754 22.0948 10.0382C21.9204 9.90091 21.6925 9.85117 21.4769 9.90344C20.7684 10.0748 20.015 10.2128 19.2374 10.3136C18.8765 10.3603 18.6064 10.6677 18.6064 11.0315V25.0667C18.6064 25.3063 18.4116 25.5011 18.172 25.5011C17.9325 25.5011 17.7376 25.3063 17.7376 25.0667V11.2228C17.7376 11.026 17.6576 10.8378 17.5159 10.7013C17.3807 10.5712 17.2007 10.4988 17.0136 10.4988C17.0046 10.4988 16.9956 10.4989 16.9865 10.4993C16.6536 10.5117 16.3217 10.5181 16.0001 10.5181C13.0026 10.5181 10.1957 10.0182 8.09651 9.11046C6.21785 8.29794 5.14035 7.24925 5.14035 6.233C5.14035 5.21674 6.21785 4.16798 8.09651 3.3556ZM23.8064 29.0354C21.7323 30.3358 18.9599 31.052 16.0001 31.052C13.0402 31.052 10.2679 30.3358 8.19374 29.0354C6.22473 27.8008 5.14035 26.1947 5.14035 24.513V8.99933C5.75291 9.53392 6.55124 10.0196 7.52181 10.4393C9.79837 11.4238 12.8093 11.9659 16.0001 11.9659C16.0959 11.9659 16.1924 11.9654 16.2897 11.9643V25.0667C16.2897 26.1046 17.1341 26.949 18.172 26.949C19.2099 26.949 20.0544 26.1046 20.0544 25.0667V11.6592C20.3482 11.6133 20.638 11.5622 20.9232 11.5062V18.5508C20.9232 19.5887 21.7676 20.4332 22.8055 20.4332C23.8434 20.4332 24.6879 19.5887 24.6879 18.5508V10.3464C25.5644 9.94883 26.2922 9.49671 26.8598 9.00237V24.5129C26.8598 26.1947 25.7754 27.8008 23.8064 29.0354Z" fill="black"/>
</g>
<defs>
<clipPath id="clip0_62_575">
<rect width="32" height="32" fill="white" transform="translate(0 0.5)"/>
</clipPath>
</defs>
</svg>
