<svg width="50" height="50" viewBox="0 0 50 50" fill="none" xmlns="http://www.w3.org/2000/svg">
<g clip-path="url(#clip0_72_1306)">
<path d="M25 50C38.8071 50 50 38.8071 50 25C50 11.1929 38.8071 0 25 0C11.1929 0 0 11.1929 0 25C0 38.8071 11.1929 50 25 50Z" fill="#2196F3"/>
<path d="M37.5 30.1688C34.8031 30.1688 32.2313 29.5813 29.8594 28.4219C29.4875 28.2438 29.0562 28.2156 28.6625 28.35C28.2687 28.4875 27.9469 28.775 27.7656 29.1469L26.6406 31.475C23.2656 29.5375 20.4656 26.7344 18.525 23.3594L20.8562 22.2344C21.2312 22.0531 21.5156 21.7312 21.6531 21.3375C21.7875 20.9438 21.7625 20.5125 21.5813 20.1406C20.4188 17.7719 19.8313 15.2 19.8313 12.5C19.8313 11.6375 19.1313 10.9375 18.2688 10.9375H12.5C11.6375 10.9375 10.9375 11.6375 10.9375 12.5C10.9375 27.1469 22.8531 39.0625 37.5 39.0625C38.3625 39.0625 39.0625 38.3625 39.0625 37.5V31.7313C39.0625 30.8688 38.3625 30.1688 37.5 30.1688Z" fill="#FAFAFA"/>
</g>
<defs>
<clipPath id="clip0_72_1306">
<rect width="50" height="50" fill="white"/>
</clipPath>
</defs>
</svg>
