<svg width="60" height="61" viewBox="0 0 60 61" fill="none" xmlns="http://www.w3.org/2000/svg">
<g clip-path="url(#clip0_72_470)">
<path d="M40.546 19.3738C40.546 17.2879 39.9275 15.2489 38.7687 13.5146C37.6099 11.7803 35.9629 10.4286 34.0358 9.63038C32.1088 8.83216 29.9883 8.62329 27.9426 9.0302C25.8968 9.43711 24.0177 10.4415 22.5428 11.9164C21.0679 13.3913 20.0635 15.2704 19.6565 17.3162C19.2496 19.3619 19.4584 21.4824 20.2566 23.4094C21.0548 25.3365 22.4066 26.9835 24.1408 28.1423C25.8751 29.3012 27.9141 29.9197 29.9999 29.9197C32.7959 29.9164 35.4764 28.8042 37.4534 26.8272C39.4305 24.8502 40.5426 22.1697 40.546 19.3738ZM23.204 19.3738C23.204 18.0296 23.6025 16.7156 24.3493 15.598C25.096 14.4804 26.1574 13.6093 27.3993 13.0949C28.6411 12.5805 30.0075 12.4459 31.3259 12.7082C32.6442 12.9704 33.8551 13.6176 34.8056 14.5681C35.756 15.5185 36.4033 16.7295 36.6655 18.0478C36.9277 19.3661 36.7932 20.7326 36.2788 21.9744C35.7644 23.2162 34.8933 24.2776 33.7757 25.0244C32.658 25.7711 31.3441 26.1697 29.9999 26.1697C28.1982 26.1676 26.4708 25.451 25.1967 24.1769C23.9227 22.9029 23.206 21.1755 23.204 19.3738ZM28.8436 49.783C29.1751 50.0459 29.5858 50.1891 30.009 50.1891C30.4321 50.1891 30.8428 50.0459 31.1743 49.783C39.6988 43.0202 48.8737 30.6195 48.8737 19.3738C48.8737 8.9668 40.407 0.5 29.9999 0.5C19.5929 0.5 11.1262 8.9668 11.1262 19.3738C11.1262 24.6639 13.1505 30.6168 16.9799 36.5886C20.1174 41.4815 24.4415 46.2905 28.8436 49.783ZM29.9999 4.25C34.0096 4.25447 37.8538 5.84929 40.6891 8.68458C43.5244 11.5199 45.1192 15.3641 45.1237 19.3738C45.1237 28.4714 37.7013 39.3279 30.0083 45.8868C22.5117 39.5096 14.8762 28.8711 14.8762 19.3738C14.8806 15.3641 16.4755 11.5199 19.3108 8.68458C22.146 5.84929 25.9902 4.25447 29.9999 4.25ZM57.3473 50.5913C57.3473 52.7366 55.8255 55.7737 48.5756 58.0603C43.5869 59.6335 36.9899 60.5 29.9999 60.5C23.0099 60.5 16.413 59.6335 11.4243 58.0603C4.17438 55.7737 2.65259 52.7366 2.65259 50.5913C2.65259 46.8986 7.08989 43.8986 15.147 42.1443C15.3876 42.0919 15.6362 42.0875 15.8785 42.1311C16.1208 42.1748 16.3522 42.2658 16.5593 42.3989C16.7665 42.532 16.9454 42.7046 17.0859 42.9068C17.2264 43.109 17.3256 43.3369 17.378 43.5775C17.4304 43.8181 17.4349 44.0667 17.3912 44.309C17.3475 44.5513 17.2566 44.7827 17.1235 44.9899C16.9904 45.197 16.8178 45.376 16.6156 45.5164C16.4133 45.6569 16.1854 45.7562 15.9448 45.8086C8.99313 47.3221 6.40259 49.5454 6.40259 50.5913C6.40259 51.2668 7.6879 52.9496 12.5522 54.4838C17.1857 55.9452 23.3821 56.75 29.9999 56.75C36.6177 56.75 42.8142 55.9452 47.4476 54.4838C52.312 52.9496 53.5973 51.2668 53.5973 50.5913C53.5973 49.5454 51.0067 47.3218 44.0549 45.8082C43.569 45.7024 43.1451 45.4079 42.8763 44.9895C42.6075 44.5711 42.5159 44.0631 42.6217 43.5772C42.7275 43.0913 43.022 42.6673 43.4404 42.3985C43.8588 42.1297 44.3668 42.0382 44.8527 42.144C52.9101 43.8983 57.3473 46.8984 57.3473 50.5913Z" fill="#FBC324"/>
</g>
<defs>
<clipPath id="clip0_72_470">
<rect width="60" height="60" fill="white" transform="translate(0 0.5)"/>
</clipPath>
</defs>
</svg>
