<svg width="42" height="42" viewBox="0 0 42 42" fill="none" xmlns="http://www.w3.org/2000/svg">
<path d="M41.2289 14.9789L37.517 11.267C37.0289 10.7789 36.3645 10.5 35.6672 10.5H31.5V6.5625C31.5 4.38867 29.7363 2.625 27.5625 2.625H14.4375C12.2637 2.625 10.5 4.38867 10.5 6.5625V10.5H6.33691C5.63965 10.5 4.97355 10.7769 4.48137 11.269L0.769043 14.9789C0.276855 15.4711 0 16.1438 0 16.841V24.9375H10.5V22.3125C10.5 21.5824 11.0824 21 11.8125 21H14.4375C15.1676 21 15.75 21.5824 15.75 22.3125V24.9375H26.25V22.3125C26.25 21.5824 26.8324 21 27.5625 21H30.1875C30.9176 21 31.5 21.5824 31.5 22.3125V24.9375H42V16.841C42 16.1438 41.7211 15.4711 41.2289 14.9789ZM27.5625 10.5H14.4375V6.5625H27.5625V10.5ZM31.5 30.1875C31.5 30.9155 30.9155 31.5 30.1875 31.5H27.5625C26.8345 31.5 26.25 30.9155 26.25 30.1875V27.5625H15.75V30.1875C15.75 30.9176 15.1676 31.5 14.4375 31.5H11.8125C11.0824 31.5 10.5 30.9176 10.5 30.1875V27.5625H0V36.75C0 38.1954 1.17961 39.375 2.625 39.375H39.375C40.8204 39.375 42 38.1954 42 36.75V27.5625H31.5V30.1875Z" fill="white"/>
</svg>
