<svg width="64" height="63" viewBox="0 0 64 63" fill="none" xmlns="http://www.w3.org/2000/svg">
<g clip-path="url(#clip0_10_186)">
<path d="M35.9768 29.2362C35.445 28.0588 33.7487 28.0969 33.2548 29.2682L29.1462 39.0898C28.8833 39.7187 29.1797 40.4414 29.8085 40.7045C30.4372 40.9671 31.1601 40.6712 31.4232 40.0423L32.1295 38.354H37.085L37.7831 40.0386C38.043 40.6653 38.7631 40.9682 39.3958 40.7061C40.0254 40.4451 40.3243 39.7231 40.0633 39.0935C35.8328 28.888 35.997 29.2811 35.9768 29.2362ZM33.1619 35.886L34.6185 32.4037L36.0618 35.886H33.1619Z" fill="#FBC324"/>
<path d="M48.7911 38.3236C47.6943 38.3279 46.1506 38.3316 45.0937 38.3321V29.6044C45.0937 28.9228 44.5411 28.3704 43.8597 28.3704C43.1781 28.3704 42.6256 28.923 42.6256 29.6044V39.5578C42.6256 40.1587 43.0585 40.6723 43.6507 40.774C43.9297 40.8218 48.5144 40.7929 48.8009 40.7918C49.4824 40.7892 50.0328 40.2344 50.0301 39.5529C50.0274 38.8825 49.487 38.3236 48.7911 38.3236Z" fill="#FBC324"/>
<path d="M23.9416 33.506C22.716 33.054 21.5753 32.5615 21.2271 32.4091C20.7806 32.0517 20.8861 31.2112 21.7783 30.9425C23.1874 30.5177 24.4922 31.5481 24.5299 31.5783C25.0517 32.0113 25.8256 31.9421 26.2623 31.4225C26.7009 30.9008 26.6335 30.1224 26.1118 29.6838C26.0179 29.6048 23.7829 27.762 21.0662 28.5791C18.1499 29.4577 17.6436 33.0238 19.9423 34.5223C19.9968 34.5578 20.054 34.5891 20.1135 34.6154C20.1711 34.6413 21.5427 35.2517 23.0873 35.8215C23.5267 35.9836 24.5342 36.4413 24.4006 37.1901C24.3003 37.7514 23.618 38.3319 22.6494 38.3319C21.6561 38.3319 20.7003 37.9314 20.0923 37.2607C19.6346 36.7555 18.8541 36.7174 18.3492 37.1749C17.8441 37.6327 17.8059 38.4131 18.2635 38.918C19.3315 40.0966 20.9711 40.8001 22.6495 40.8001C24.7435 40.8001 26.5019 39.4643 26.8304 37.6239C27.0776 36.2395 26.4484 34.4306 23.9416 33.506Z" fill="#FBC324"/>
<path d="M52.4982 39.5215C52.4982 40.2031 53.0508 40.7555 53.7322 40.7555H57.4344C58.116 40.7555 58.6685 40.2029 58.6685 39.5215C58.6685 38.8401 58.1159 38.2875 57.4344 38.2875H54.9662V35.7779H57.133C57.8145 35.7779 58.367 35.2253 58.367 34.5439C58.367 33.8623 57.8144 33.3099 57.133 33.3099H54.9662V30.9278H57.4344C58.116 30.9278 58.6685 30.3752 58.6685 29.6938C58.6685 29.0122 58.1159 28.4597 57.4344 28.4597H53.7322C53.0506 28.4597 52.4982 29.0123 52.4982 29.6938V39.5215Z" fill="#FBC324"/>
<path d="M59.9027 17.308C61.9781 17.308 63.6667 15.6194 63.6667 13.544V12.4333C63.6667 10.3578 61.9781 8.66927 59.9027 8.66927H53.7322V6.20132C53.7322 5.51976 53.1796 4.96728 52.4982 4.96728C51.8167 4.96728 51.2641 5.51988 51.2641 6.20132V8.66951H25.3484V6.20132C25.3484 5.51976 24.7958 4.96728 24.1143 4.96728C23.4329 4.96728 22.8803 5.51988 22.8803 6.20132V8.66951H9.30529V3.79477C9.30529 1.71933 7.61671 0.0307617 5.54128 0.0307617H4.43066C2.35523 0.0308848 0.666656 1.71946 0.666656 3.79477V59.2052C0.666656 61.2807 2.35523 62.9692 4.43066 62.9692H5.5414C7.61684 62.9692 9.30541 61.2807 9.30541 59.2052V17.308H22.8803V21.0103H17.944C15.2221 21.0103 13.0076 23.2247 13.0076 25.9466V43.2238C13.0076 45.9456 15.2221 48.1602 17.944 48.1602H58.6689C61.3907 48.1602 63.6051 45.9457 63.6051 43.2238V25.9466C63.6051 23.2249 61.3907 21.0103 58.6689 21.0103H53.7325V17.308H59.9027ZM6.83709 59.2052C6.83709 59.9198 6.25582 60.501 5.54128 60.501H4.43066C3.71613 60.501 3.13485 59.9198 3.13485 59.2052V3.79477C3.13485 3.08023 3.71613 2.49896 4.43066 2.49896H5.5414C6.25594 2.49896 6.83721 3.08023 6.83721 3.79477C6.83709 9.95055 6.83709 50.0878 6.83709 59.2052ZM9.30529 11.1376H59.9028C60.6173 11.1376 61.1986 11.7189 61.1986 12.4334V13.5441C61.1986 14.2587 60.6173 14.8399 59.9028 14.8399C57.4747 14.8399 10.7582 14.8399 9.30529 14.8399V11.1376ZM61.1368 25.9466V43.2238C61.1368 44.5848 60.0296 45.692 58.6686 45.692H17.9438C16.5828 45.692 15.4756 44.5848 15.4756 43.2238V25.9466C15.4756 24.5856 16.5828 23.4785 17.9438 23.4785H58.6686C60.0296 23.4785 61.1368 24.5856 61.1368 25.9466ZM51.2641 21.0103H25.3484V17.308H51.2641V21.0103Z" fill="#FBC324"/>
</g>
<defs>
<clipPath id="clip0_10_186">
<rect width="63" height="63" fill="white" transform="translate(0.666656)"/>
</clipPath>
</defs>
</svg>
