<svg width="44" height="44" viewBox="0 0 44 44" fill="none" xmlns="http://www.w3.org/2000/svg">
<g clip-path="url(#clip0_12_286)">
<path d="M39.6 4.4H37.4V2.2C37.4 0.88 36.52 0 35.2 0C33.88 0 33 0.88 33 2.2V4.4H11V2.2C11 0.88 10.12 0 8.8 0C7.48 0 6.6 0.88 6.6 2.2V4.4H2.2C1.1 4.4 0 5.28 0 6.6V37.4C0 38.72 1.1 39.6 2.2 39.6H15.62C14.08 36.96 13.2 33.88 13.2 30.8C13.2 21.12 21.12 13.2 30.8 13.2C34.98 13.2 38.72 14.74 41.8 17.16V6.6C41.8 5.5 40.7 4.4 39.6 4.4Z" fill="white"/>
<path d="M30.8 17.6001C23.54 17.6001 17.6 23.5401 17.6 30.8001C17.6 38.0601 23.54 44.0001 30.8 44.0001C38.06 44.0001 44 38.0601 44 30.8001C44 23.5401 38.06 17.6001 30.8 17.6001ZM35.2 33.0001H30.8C29.48 33.0001 28.6 32.1201 28.6 30.8001V24.2001C28.6 22.8801 29.48 22.0001 30.8 22.0001C32.12 22.0001 33 22.8801 33 24.2001V28.6001H35.2C36.52 28.6001 37.4 29.4801 37.4 30.8001C37.4 32.1201 36.52 33.0001 35.2 33.0001Z" fill="white"/>
</g>
<defs>
<clipPath id="clip0_12_286">
<rect width="44" height="44" fill="white"/>
</clipPath>
</defs>
</svg>
