<svg width="42" height="42" viewBox="0 0 42 42" fill="none" xmlns="http://www.w3.org/2000/svg">
<g clip-path="url(#clip0_11_835)">
<path d="M21.0246 -0.000408136C21.484 -0.00400931 21.927 0.113845 22.3207 0.333689L39.0879 7.42644C40.0066 7.81527 40.6219 8.62163 40.6793 9.68804C41.1469 17.522 38.284 34.6091 22.3535 41.6474C21.9516 41.8771 21.4184 42.0084 21.0246 42.0001C20.5488 42.0084 20.0895 41.8771 19.6137 41.6474C3.75703 34.6091 0.898243 17.522 1.35926 9.68804C1.4175 8.62163 2.03684 7.81527 2.95641 7.42644L19.7203 0.333689C20.1141 0.113845 20.5652 -0.00400931 21.0246 -0.000408136ZM21.8285 29.8103L29.8758 21.6236C32.1727 19.2529 32.0332 15.3072 29.3754 13.0841C27.218 11.14 23.9121 11.5009 21.8285 13.6584L21.0328 14.4459L20.1715 13.6584C18.1617 11.5009 14.782 11.14 12.5508 13.0841C9.9668 15.3072 9.82734 19.2529 12.1242 21.6236L20.032 29.8103C20.6063 30.3107 21.3938 30.3107 21.8285 29.8103Z" fill="white"/>
</g>
<defs>
<clipPath id="clip0_11_835">
<rect width="42" height="42" fill="white"/>
</clipPath>
</defs>
</svg>
