<svg width="109" height="16" viewBox="0 0 109 16" fill="none" xmlns="http://www.w3.org/2000/svg">
<g clip-path="url(#clip0_1_294)">
<path fill-rule="evenodd" clip-rule="evenodd" d="M8.36332 0L10.3376 6.07631H16.7266L11.5578 9.83163L13.5322 15.9079L8.36332 12.1526L3.19446 15.9079L5.16873 9.83163L0 6.07631H6.38904L8.36332 0Z" fill="#F15A24"/>
<path fill-rule="evenodd" clip-rule="evenodd" d="M31.3559 0L33.3302 6.07631H39.7192L34.5503 9.83163L36.5247 15.9079L31.3559 12.1526L26.187 15.9079L28.1613 9.83163L22.9926 6.07631H29.3816L31.3559 0Z" fill="#F15A24"/>
<path fill-rule="evenodd" clip-rule="evenodd" d="M54.2423 0L56.2166 6.07631H62.6057L57.4368 9.83163L59.4112 15.9079L54.2423 12.1526L49.0735 15.9079L51.0478 9.83163L45.879 6.07631H52.2681L54.2423 0Z" fill="#F15A24"/>
<path fill-rule="evenodd" clip-rule="evenodd" d="M77.1269 0L79.1011 6.07631H85.4902L80.3213 9.83163L82.2957 15.9079L77.1269 12.1526L71.958 15.9079L73.9323 9.83163L68.7635 6.07631H75.1526L77.1269 0Z" fill="#F15A24"/>
<path fill-rule="evenodd" clip-rule="evenodd" d="M100.004 0L101.978 6.07631H108.367L103.199 9.83163L105.173 15.9079L100.004 12.1526L94.8352 15.9079L96.8095 9.83163L91.6407 6.07631H98.0298L100.004 0Z" fill="#F15A24"/>
</g>
<defs>
<clipPath id="clip0_1_294">
<rect width="108.431" height="16" fill="white"/>
</clipPath>
</defs>
</svg>
