<svg width="522" height="608" viewBox="0 0 522 608" fill="none" xmlns="http://www.w3.org/2000/svg">
<path d="M522 268V255.166L158.276 0H139.983L522 268Z" fill="#E8E8E8"/>
<path d="M522 293V280.171L122.167 0H103.858L522 293Z" fill="#E8E8E8"/>
<path d="M522 243V230.161L193.527 0H175.204L522 243Z" fill="#E8E8E8"/>
<path d="M522 319V306.134L86.0553 0H67.7336L522 319Z" fill="#E8E8E8"/>
<path d="M522 218V205.154L229.635 0H211.329L522 218Z" fill="#E8E8E8"/>
<path d="M522 344V331.14L50.811 0H32.5122L522 344Z" fill="#E8E8E8"/>
<path d="M522 469V456.161L0 90V102.839L522 469Z" fill="#E8E8E8"/>
<path d="M522 419V406.161L0 40V52.8391L522 419Z" fill="#E8E8E8"/>
<path d="M522 394V381.161L0 15V27.8391L522 394Z" fill="#E8E8E8"/>
<path d="M522 444V431.161L0 65V77.8391L522 444Z" fill="#E8E8E8"/>
<path d="M522 17V4.16065L516.026 0H497.616L522 17Z" fill="#E8E8E8"/>
<path d="M522 42V29.1946L480.565 0H462.395L522 42Z" fill="#E8E8E8"/>
<path d="M522 356.145L14.8889 0H0V2.39815L522 369V356.145Z" fill="#E8E8E8"/>
<path d="M522 193V180.146L265.738 0H247.453L522 193Z" fill="#E8E8E8"/>
<path d="M522 67V54.2088L444.553 0H426.27L522 67Z" fill="#E8E8E8"/>
<path d="M522 168V155.135L301.001 0H282.675L522 168Z" fill="#E8E8E8"/>
<path d="M522 92V79.2126L408.479 0H390.145L522 92Z" fill="#E8E8E8"/>
<path d="M522 143V130.121L337.1 0H318.799L522 143Z" fill="#E8E8E8"/>
<path d="M522 118V105.106L373.188 0H354.924L522 118Z" fill="#E8E8E8"/>
<path d="M325.775 608H344.087L0 367V379.825L325.775 608Z" fill="#E8E8E8"/>
<path d="M218.307 608H236.616L0 442V454.845L218.307 608Z" fill="#E8E8E8"/>
<path d="M146.931 608H165.27L0 492V504.872L146.931 608Z" fill="#E8E8E8"/>
<path d="M182.211 608H200.491L0 467V479.856L182.211 608Z" fill="#E8E8E8"/>
<path d="M254.41 608H272.74L0 417V429.837L254.41 608Z" fill="#E8E8E8"/>
<path d="M289.669 608H307.962L0 392V404.83L289.669 608Z" fill="#E8E8E8"/>
<path d="M3.44184 608H21.6747L0 593V605.618L3.44184 608Z" fill="#E8E8E8"/>
<path d="M39.4186 608H57.7993L0 568V580.72L39.4186 608Z" fill="#E8E8E8"/>
<path d="M110.843 608H129.145L0 517V529.897L110.843 608Z" fill="#E8E8E8"/>
<path d="M522 494V481.161L0 115V127.839L522 494Z" fill="#E8E8E8"/>
<path d="M74.7827 608H93.0208L0 542V554.94L74.7827 608Z" fill="#E8E8E8"/>
<path d="M522 570V557.161L0 191V203.839L522 570Z" fill="#E8E8E8"/>
<path d="M361.025 608H379.308L0 341V353.87L361.025 608Z" fill="#E8E8E8"/>
<path d="M522 595V582.161L0 216V228.834L522 595Z" fill="#E8E8E8"/>
<path d="M522 519V506.161L0 140V152.839L522 519Z" fill="#E8E8E8"/>
<path d="M522 544V531.161L0 165V177.839L522 544Z" fill="#E8E8E8"/>
<path d="M397.134 608H415.433L0 316V328.862L397.134 608Z" fill="#E8E8E8"/>
<path d="M504.627 608H522V607.341L0 241V253.84L504.627 608Z" fill="#E8E8E8"/>
<path d="M433.245 608H451.557L0 291V303.856L433.245 608Z" fill="#E8E8E8"/>
<path d="M468.488 608H486.779L0 266V278.85L468.488 608Z" fill="#E8E8E8"/>
</svg>
