<svg width="510" height="536" viewBox="0 0 510 536" fill="none" xmlns="http://www.w3.org/2000/svg">
<path d="M509.539 236.504V225.201L154.819 0.460693H136.978L509.539 236.504Z" fill="#E8E8E8"/>
<path d="M509.539 258.523V247.223L119.604 0.460693H101.748L509.539 258.523Z" fill="#E8E8E8"/>
<path d="M509.539 214.485V203.177L189.198 0.460693H171.328L509.539 214.485Z" fill="#E8E8E8"/>
<path d="M509.539 281.423V270.091L84.3857 0.460693H66.5176L509.539 281.423Z" fill="#E8E8E8"/>
<path d="M509.539 192.466V181.152L224.411 0.460693H206.558L509.539 192.466Z" fill="#E8E8E8"/>
<path d="M509.539 303.442V292.115L50.0138 0.460693H32.168L509.539 303.442Z" fill="#E8E8E8"/>
<path d="M509.539 413.537V402.228L0.460693 79.729V91.0372L509.539 413.537Z" fill="#E8E8E8"/>
<path d="M509.539 369.499V358.19L0.460693 35.691V46.9992L509.539 369.499Z" fill="#E8E8E8"/>
<path d="M509.539 347.48V336.171L0.460693 13.6721V24.9802L509.539 347.48Z" fill="#E8E8E8"/>
<path d="M509.539 391.518V380.209L0.460693 57.71V69.0182L509.539 391.518Z" fill="#E8E8E8"/>
<path d="M509.539 15.4336V4.12522L503.713 0.460693H485.759L509.539 15.4336Z" fill="#E8E8E8"/>
<path d="M509.539 37.4526V26.1741L469.13 0.460693H451.409L509.539 37.4526Z" fill="#E8E8E8"/>
<path d="M509.539 314.139L14.981 0.460693H0.460693V2.57289L509.539 325.461V314.139Z" fill="#E8E8E8"/>
<path d="M509.539 170.447V159.126L259.621 0.460693H241.789L509.539 170.447Z" fill="#E8E8E8"/>
<path d="M509.539 59.4715V48.2056L434.009 0.460693H416.179L509.539 59.4715Z" fill="#E8E8E8"/>
<path d="M509.539 148.428V137.098L294.011 0.460693H276.138L509.539 148.428Z" fill="#E8E8E8"/>
<path d="M509.539 81.4905V70.2279L398.829 0.460693H380.948L509.539 81.4905Z" fill="#E8E8E8"/>
<path d="M509.539 126.409V115.066L329.216 0.460693H311.369L509.539 126.409Z" fill="#E8E8E8"/>
<path d="M509.539 104.39V93.0333L364.411 0.460693H346.599L509.539 104.39Z" fill="#E8E8E8"/>
<path d="M318.172 535.962H336.03L0.460693 323.699V334.995L318.172 535.962Z" fill="#E8E8E8"/>
<path d="M213.364 535.962H231.219L0.460693 389.756V401.069L213.364 535.962Z" fill="#E8E8E8"/>
<path d="M143.755 535.962H161.64L0.460693 433.794V445.131L143.755 535.962Z" fill="#E8E8E8"/>
<path d="M178.162 535.962H195.989L0.460693 411.775V423.098L178.162 535.962Z" fill="#E8E8E8"/>
<path d="M248.573 535.962H266.45L0.460693 367.737V379.043L248.573 535.962Z" fill="#E8E8E8"/>
<path d="M282.959 535.962H300.799L0.460693 345.718V357.019L282.959 535.962Z" fill="#E8E8E8"/>
<path d="M3.81734 535.962H21.5989L0.460693 522.751V533.864L3.81734 535.962Z" fill="#E8E8E8"/>
<path d="M38.9035 535.962H56.8293L0.460693 500.732V511.935L38.9035 535.962Z" fill="#E8E8E8"/>
<path d="M108.56 535.962H126.409L0.460693 455.813V467.172L108.56 535.962Z" fill="#E8E8E8"/>
<path d="M509.539 435.556V424.247L0.460693 101.748V113.056L509.539 435.556Z" fill="#E8E8E8"/>
<path d="M73.3922 535.962H91.1789L0.460693 477.832V489.229L73.3922 535.962Z" fill="#E8E8E8"/>
<path d="M509.539 502.493V491.185L0.460693 168.686V179.994L509.539 502.493Z" fill="#E8E8E8"/>
<path d="M352.549 535.962H370.379L0.460693 300.799V312.134L352.549 535.962Z" fill="#E8E8E8"/>
<path d="M509.539 524.512V513.204L0.460693 190.705V202.008L509.539 524.512Z" fill="#E8E8E8"/>
<path d="M509.539 457.575V446.266L0.460693 123.767V135.075L509.539 457.575Z" fill="#E8E8E8"/>
<path d="M509.539 479.593V468.285L0.460693 145.786V157.094L509.539 479.593Z" fill="#E8E8E8"/>
<path d="M387.764 535.962H405.61L0.460693 278.78V290.109L387.764 535.962Z" fill="#E8E8E8"/>
<path d="M492.596 535.962H509.539V535.382L0.460693 212.724V224.033L492.596 535.962Z" fill="#E8E8E8"/>
<path d="M422.981 535.962H440.84L0.460693 256.762V268.084L422.981 535.962Z" fill="#E8E8E8"/>
<path d="M457.352 535.962H475.19L0.460693 234.743V246.061L457.352 535.962Z" fill="#E8E8E8"/>
</svg>
