<svg width="32" height="32" viewBox="0 0 32 32" fill="none" xmlns="http://www.w3.org/2000/svg">
<g clip-path="url(#clip0_62_584)">
<path d="M31.0673 15.0577H30.5195C30.2025 7.96121 24.031 1.79326 16.9344 1.48003V0.93266C16.8848 -0.311356 15.1083 -0.310418 15.0592 0.93266V1.48041C7.96383 1.7967 1.79576 7.96564 1.48028 15.0609H0.93266C-0.311356 15.1105 -0.310418 16.887 0.93266 16.9361H1.4801C1.79407 24.034 7.96477 30.2051 15.0624 30.5198V31.0674C15.112 32.3114 16.8885 32.3105 16.9376 31.0674V30.5198C24.0366 30.205 30.2076 24.0319 30.5201 16.9329H31.0673C32.3114 16.8834 32.3104 15.1068 31.0673 15.0577ZM28.6395 15.0577H24.5959C24.1597 11.0363 20.956 7.83307 16.9345 7.39764V3.36C23.1772 3.81711 28.1786 8.81605 28.6395 15.0577ZM21.2686 16.9329H22.7069C22.2923 19.9194 19.9235 22.2896 16.9377 22.7063V21.2686C16.8881 20.0246 15.1115 20.0255 15.0624 21.2686V22.7071C12.0747 22.2931 9.7034 19.9233 9.28736 16.9361H10.7315C11.9755 16.8865 11.9746 15.11 10.7315 15.0609H9.28692C9.70159 12.0733 12.072 9.70253 15.0593 9.28711V10.7315C15.1089 11.9755 16.8855 11.9745 16.9345 10.7315V9.28711C19.9208 9.70234 22.2906 12.0716 22.7065 15.0577H21.2687C20.0246 15.1073 20.0255 16.8838 21.2686 16.9329ZM15.0592 3.3605V7.39771C11.0366 7.83325 7.83225 11.0381 7.39746 15.0609H3.36031C3.81961 8.81987 8.81837 3.82055 15.0592 3.3605ZM3.36006 16.9361H7.39777C7.83407 20.9585 11.0393 24.1624 15.0623 24.5965V28.6399C8.81905 28.1812 3.81799 23.1797 3.36006 16.9361ZM16.9376 28.6399V24.5958C20.9587 24.1589 24.1615 20.9547 24.5962 16.9329H28.6402C28.1837 23.178 23.182 28.1811 16.9376 28.6399Z" fill="#FBC324"/>
<path d="M17.9818 15.0594H16.9344V14.012C16.8848 12.768 15.1083 12.7689 15.0592 14.012V15.0594H14.0118C12.7677 15.109 12.7687 16.8856 14.0118 16.9346H15.0592V17.9821C15.1088 19.2261 16.8853 19.2252 16.9344 17.9821V16.9346H17.9818C19.2259 16.8851 19.2249 15.1085 17.9818 15.0594Z" fill="#FBC324"/>
</g>
<defs>
<clipPath id="clip0_62_584">
<rect width="32" height="32" fill="white"/>
</clipPath>
</defs>
</svg>
